{"glyphs":{"0":{"ha":1014,"x_min":75,"x_max":939,"o":"m 939 488 q 908 289 939 381 q 819 129 876 197 q 683 22 763 61 q 506 -17 603 -17 q 328 22 408 -17 q 192 128 249 60 q 106 287 136 196 q 75 485 75 378 q 106 683 75 590 q 194 843 138 775 q 331 950 251 911 q 508 989 411 989 q 685 951 606 989 q 822 844 765 913 q 908 685 878 776 q 939 488 939 593 m 719 485 q 704 608 719 551 q 661 707 689 665 q 594 772 633 749 q 506 796 554 796 q 418 773 457 796 q 351 709 379 750 q 309 611 324 668 q 294 488 294 554 q 310 364 294 421 q 353 265 325 307 q 420 200 381 224 q 508 176 460 176 q 596 199 557 176 q 663 264 635 222 q 705 362 690 306 q 719 485 719 418 "},"1":{"ha":586,"x_min":33,"x_max":458,"o":"m 33 896 l 313 979 l 458 979 l 458 0 l 247 0 l 247 763 l 78 721 l 33 896 "},"2":{"ha":865,"x_min":68,"x_max":788,"o":"m 429 794 q 328 763 372 794 q 231 664 285 731 l 81 785 q 153 871 117 833 q 233 934 190 908 q 326 973 275 960 q 443 986 378 986 q 583 965 521 986 q 688 903 644 943 q 755 808 732 864 q 778 685 778 753 q 762 576 778 624 q 715 485 746 528 q 635 399 683 442 q 522 307 586 357 l 364 185 l 788 185 l 788 0 l 68 0 l 68 169 l 392 435 q 469 502 438 472 q 522 559 501 532 q 551 612 542 586 q 560 668 560 638 q 524 763 560 731 q 429 794 488 794 "},"3":{"ha":863,"x_min":53,"x_max":782,"o":"m 492 789 l 110 789 l 110 972 l 767 972 l 767 811 l 521 576 q 618 550 571 568 q 701 499 665 532 q 760 419 738 467 q 782 303 782 371 q 758 175 782 233 q 688 74 733 117 q 578 7 643 31 q 432 -17 513 -17 q 208 30 300 -17 q 53 151 115 76 l 200 292 q 305 205 250 235 q 435 175 360 175 q 534 207 496 175 q 572 294 572 239 q 523 388 572 356 q 382 419 474 419 l 293 419 l 260 556 l 492 789 "},"4":{"ha":957,"x_min":43,"x_max":888,"o":"m 576 979 l 757 979 l 757 383 l 888 383 l 888 210 l 757 210 l 757 0 l 553 0 l 553 210 l 78 210 l 43 361 l 576 979 m 553 383 l 553 686 l 294 383 l 553 383 "},"5":{"ha":875,"x_min":60,"x_max":793,"o":"m 125 493 l 153 972 l 750 972 l 750 785 l 336 785 l 325 617 q 383 628 354 624 q 453 633 413 633 q 587 615 525 633 q 694 560 649 597 q 767 463 740 522 q 793 321 793 404 q 767 181 793 243 q 692 74 740 118 q 576 7 644 31 q 424 -17 507 -17 q 218 22 306 -17 q 60 129 131 61 l 189 283 q 300 206 244 233 q 421 178 356 178 q 540 213 496 178 q 583 314 583 247 q 537 413 583 378 q 411 447 490 447 q 324 437 365 447 q 249 411 283 426 l 125 493 "},"6":{"ha":919,"x_min":75,"x_max":842,"o":"m 806 882 l 693 717 q 647 749 669 735 q 601 774 625 764 q 551 789 578 783 q 494 794 525 794 q 415 777 449 794 q 356 730 381 760 q 318 658 332 700 q 299 569 304 617 q 381 613 335 593 q 500 632 428 632 q 635 612 572 632 q 743 553 697 592 q 815 456 789 514 q 842 321 842 397 q 813 184 842 246 q 735 77 785 122 q 618 8 686 32 q 471 -17 550 -17 q 308 10 375 -17 q 190 88 242 36 q 106 226 138 140 q 75 457 75 311 q 101 667 75 569 q 179 835 126 764 q 313 948 232 907 q 501 989 393 989 q 593 982 551 989 q 671 961 635 975 q 740 927 707 947 q 806 882 774 907 m 629 311 q 584 414 629 374 q 460 454 539 454 q 337 415 381 454 q 293 313 293 375 q 338 208 293 249 q 463 167 383 167 q 585 207 542 167 q 629 311 629 247 "},"7":{"ha":860,"x_min":94,"x_max":794,"o":"m 94 788 l 94 972 l 794 972 l 794 811 l 358 0 l 117 0 l 551 788 l 94 788 "},"8":{"ha":875,"x_min":63,"x_max":813,"o":"m 813 274 q 784 152 813 206 q 706 62 756 99 q 587 6 656 25 q 438 -14 518 -14 q 288 6 357 -14 q 169 63 219 26 q 91 152 119 100 q 63 268 63 204 q 102 413 63 358 q 219 504 142 468 q 129 589 163 539 q 96 718 96 639 q 120 823 96 774 q 190 908 144 872 q 297 965 235 944 q 438 986 360 986 q 577 965 514 986 q 685 908 640 944 q 755 823 731 872 q 779 718 779 774 q 746 589 779 639 q 656 504 713 539 q 772 413 731 465 q 813 274 813 361 m 576 694 q 540 775 576 740 q 438 810 504 810 q 335 776 371 810 q 299 696 299 742 q 336 609 299 643 q 438 575 374 575 q 539 608 501 575 q 576 694 576 642 m 606 285 q 558 374 606 343 q 438 406 511 406 q 317 374 364 406 q 269 285 269 343 q 314 197 269 232 q 438 163 358 163 q 561 197 517 163 q 606 285 606 232 "},"9":{"ha":919,"x_min":78,"x_max":844,"o":"m 844 515 q 817 298 844 396 q 735 131 789 200 q 603 22 682 61 q 419 -17 524 -17 q 238 15 313 -17 q 100 99 163 47 l 213 261 q 314 198 265 218 q 425 178 363 178 q 563 239 515 178 q 622 399 611 300 q 538 350 586 368 q 425 332 489 332 q 282 353 346 332 q 172 415 218 375 q 102 514 126 456 q 78 647 78 572 q 105 783 78 721 q 181 892 132 846 q 298 963 229 938 q 449 989 367 989 q 537 983 497 989 q 610 964 576 976 q 672 931 643 951 q 729 883 701 911 q 776 824 756 857 q 813 746 797 790 q 836 644 828 701 q 844 515 844 588 m 626 656 q 581 764 626 722 q 456 806 536 806 q 333 765 376 806 q 290 657 290 724 q 335 550 290 590 q 460 510 381 510 q 583 551 539 510 q 626 656 626 592 "}," ":{"ha":417,"x_min":0,"x_max":0,"o":""},"!":{"ha":450,"x_min":101,"x_max":349,"o":"m 101 972 l 349 972 l 349 944 l 283 331 l 167 331 l 101 944 l 101 972 m 338 0 l 113 0 l 113 222 l 338 222 l 338 0 "},"\"":{"ha":722,"x_min":79,"x_max":665,"o":"m 407 529 l 432 972 l 665 972 l 665 965 l 514 529 l 407 529 m 79 529 l 104 972 l 338 972 l 338 965 l 186 529 l 79 529 "},"#":{"ha":972,"x_min":49,"x_max":924,"o":"m 924 592 l 788 592 l 753 386 l 875 386 l 875 208 l 722 208 l 686 0 l 503 0 l 539 208 l 338 208 l 301 0 l 118 0 l 154 208 l 49 208 l 49 386 l 185 386 l 219 592 l 97 592 l 97 769 l 250 769 l 285 972 l 468 972 l 433 769 l 635 769 l 669 972 l 853 972 l 818 769 l 924 769 l 924 592 m 604 592 l 403 592 l 368 386 l 569 386 l 604 592 "},"$":{"ha":897,"x_min":61,"x_max":828,"o":"m 828 276 q 806 171 828 218 q 747 88 785 124 q 654 31 708 53 q 533 1 600 8 l 533 -136 l 389 -136 l 389 4 q 215 49 299 15 q 61 136 131 83 l 169 294 q 280 223 226 251 q 396 182 333 194 l 396 403 q 265 449 321 424 q 172 510 208 475 q 116 591 135 544 q 97 699 97 638 q 118 804 97 757 q 177 887 139 851 q 269 944 215 922 q 389 972 324 965 l 389 1053 l 533 1053 l 533 969 q 672 933 608 958 q 792 867 735 907 l 699 704 q 614 753 657 732 q 526 786 571 775 l 526 576 q 756 463 685 533 q 828 276 828 393 m 396 611 l 396 799 q 323 768 346 792 q 300 711 300 744 q 319 656 300 679 q 396 611 339 632 m 625 265 q 604 325 625 301 q 526 369 583 349 l 526 175 q 625 265 625 190 "},"%":{"ha":1194,"x_min":63,"x_max":1132,"o":"m 535 736 q 517 638 535 683 q 469 559 500 593 q 394 506 438 525 q 297 486 350 486 q 201 506 244 486 q 127 558 158 525 q 79 637 96 592 q 63 733 63 682 q 80 831 63 785 q 128 910 97 876 q 203 964 160 944 q 300 983 247 983 q 396 964 353 983 q 470 911 439 944 q 518 833 501 878 q 535 736 535 788 m 1035 972 l 325 0 l 160 0 l 869 972 l 1035 972 m 1132 239 q 1115 141 1132 186 q 1066 62 1097 96 q 991 8 1035 28 q 894 -11 947 -11 q 799 8 842 -11 q 724 61 756 28 q 676 140 693 94 q 660 236 660 185 q 677 333 660 288 q 726 413 694 379 q 801 467 757 447 q 897 486 844 486 q 993 467 950 486 q 1067 414 1036 447 q 1115 335 1099 381 q 1132 239 1132 290 m 389 733 q 364 820 389 783 q 297 857 339 857 q 231 821 253 857 q 208 736 208 785 q 233 649 208 686 q 300 613 258 613 q 367 649 344 613 q 389 733 389 685 m 986 236 q 961 323 986 286 q 894 360 936 360 q 828 324 850 360 q 806 239 806 288 q 831 152 806 189 q 897 115 856 115 q 964 151 942 115 q 986 236 986 188 "},"&":{"ha":967,"x_min":47,"x_max":928,"o":"m 928 90 l 771 -19 l 658 94 q 528 16 599 46 q 374 -14 458 -14 q 244 6 304 -14 q 141 62 185 25 q 72 151 97 99 q 47 268 47 203 q 96 428 47 363 q 236 536 144 494 q 184 634 200 588 q 168 732 168 681 q 188 828 168 782 q 244 910 207 875 q 337 967 282 946 q 463 989 392 989 q 575 970 525 989 q 661 918 625 951 q 717 840 697 885 q 736 743 736 794 q 679 583 736 644 q 532 488 622 522 l 661 358 q 708 438 685 396 q 756 525 732 481 l 913 439 q 853 335 885 388 q 785 233 821 282 l 928 90 m 550 731 q 524 799 550 775 q 458 822 499 822 q 390 794 415 822 q 364 722 364 767 q 377 662 364 689 q 421 600 390 635 q 517 653 485 624 q 550 731 550 683 m 539 217 l 353 406 q 283 347 304 381 q 263 276 263 313 q 301 192 263 224 q 399 161 339 161 q 470 176 435 161 q 539 217 506 190 "},"'":{"ha":397,"x_min":79,"x_max":340,"o":"m 79 529 l 104 972 l 340 972 l 340 965 l 189 529 l 79 529 "},"(":{"ha":618,"x_min":82,"x_max":560,"o":"m 560 853 q 438 754 489 804 q 355 650 388 704 q 307 534 322 596 q 292 399 292 472 q 307 263 292 325 q 355 147 322 201 q 438 43 388 93 q 560 -56 489 -7 l 467 -196 q 178 53 274 -92 q 82 399 82 197 q 178 744 82 600 q 467 993 274 889 l 560 853 "},")":{"ha":618,"x_min":58,"x_max":536,"o":"m 536 399 q 440 53 536 197 q 151 -196 344 -92 l 58 -56 q 180 43 129 -7 q 263 147 231 93 q 311 263 296 201 q 326 399 326 325 q 311 534 326 472 q 263 650 296 596 q 180 754 231 704 q 58 853 129 804 l 151 993 q 440 744 344 889 q 536 399 536 600 "},"*":{"ha":597,"x_min":71,"x_max":526,"o":"m 526 681 l 468 581 l 333 683 l 356 517 l 242 517 l 264 683 l 129 581 l 71 681 l 226 746 l 71 811 l 129 911 l 264 808 l 242 975 l 356 975 l 333 808 l 468 911 l 526 811 l 371 746 l 526 681 "},"+":{"ha":889,"x_min":94,"x_max":794,"o":"m 346 585 l 346 835 l 543 835 l 543 585 l 794 585 l 794 393 l 543 393 l 543 143 l 346 143 l 346 393 l 94 393 l 94 585 l 346 585 "},",":{"ha":397,"x_min":36,"x_max":311,"o":"m 36 -137 q 172 0 183 -122 l 86 0 l 86 222 l 311 222 l 311 35 q 244 -163 311 -103 q 54 -225 178 -224 l 36 -137 "},"-":{"ha":567,"x_min":69,"x_max":497,"o":"m 497 329 l 69 329 l 69 532 l 497 532 l 497 329 "},".":{"ha":397,"x_min":86,"x_max":311,"o":"m 311 0 l 86 0 l 86 222 l 311 222 l 311 0 "},"/":{"ha":736,"x_min":-39,"x_max":756,"o":"m 576 1108 l 756 1108 l 140 -178 l -39 -178 l 576 1108 "},":":{"ha":411,"x_min":93,"x_max":318,"o":"m 318 522 l 93 522 l 93 744 l 318 744 l 318 522 m 318 0 l 93 0 l 93 222 l 318 222 l 318 0 "},";":{"ha":411,"x_min":43,"x_max":318,"o":"m 318 522 l 93 522 l 93 744 l 318 744 l 318 522 m 43 -137 q 179 0 190 -122 l 93 0 l 93 222 l 318 222 l 318 35 q 251 -163 318 -103 q 61 -225 185 -224 l 43 -137 "},"<":{"ha":889,"x_min":94,"x_max":767,"o":"m 94 585 l 767 879 l 767 683 l 297 490 l 767 297 l 767 99 l 94 393 l 94 585 "},"=":{"ha":889,"x_min":115,"x_max":774,"o":"m 115 765 l 774 765 l 774 574 l 115 574 l 115 765 m 115 404 l 774 404 l 774 213 l 115 213 l 115 404 "},">":{"ha":889,"x_min":122,"x_max":794,"o":"m 794 393 l 122 99 l 122 294 l 592 488 l 122 681 l 122 879 l 794 585 l 794 393 "},"?":{"ha":756,"x_min":28,"x_max":704,"o":"m 249 563 q 436 601 381 568 q 492 690 492 633 q 458 765 492 739 q 364 790 425 790 q 255 767 306 790 q 156 694 204 743 l 28 835 q 172 943 89 901 q 368 985 254 985 q 505 966 443 985 q 611 910 567 947 q 680 819 656 874 q 704 696 704 765 q 683 581 704 629 q 624 500 661 533 q 538 447 588 467 q 431 415 488 426 l 415 331 l 274 331 l 242 556 l 249 563 m 453 0 l 228 0 l 228 222 l 453 222 l 453 0 "},"@":{"ha":1361,"x_min":74,"x_max":1288,"o":"m 1288 439 q 1266 286 1288 351 q 1207 177 1244 221 q 1119 112 1169 133 q 1011 90 1068 90 q 876 117 926 90 q 799 174 825 143 q 712 116 763 142 q 593 90 661 90 q 494 109 540 90 q 413 163 447 128 q 358 247 378 197 q 339 358 339 296 q 365 496 339 432 q 433 606 390 560 q 533 680 476 653 q 650 707 589 707 q 767 680 722 707 q 842 613 813 653 l 857 686 l 1021 660 l 956 286 q 952 263 953 275 q 951 243 951 251 q 978 181 951 206 q 1053 156 1004 156 q 1122 174 1090 156 q 1178 228 1154 192 q 1215 317 1201 264 q 1229 439 1229 369 q 1188 624 1229 535 q 1073 783 1146 714 q 899 892 1000 851 q 682 933 799 933 q 463 890 564 933 q 289 771 363 846 q 174 595 215 696 q 132 381 132 494 q 174 165 132 265 q 290 -9 215 65 q 467 -126 364 -83 q 693 -169 569 -169 q 876 -146 797 -169 q 1033 -76 954 -122 l 1061 -121 q 891 -197 981 -169 q 693 -225 801 -225 q 447 -177 560 -225 q 250 -47 333 -129 q 120 146 167 36 q 74 381 74 256 q 121 616 74 506 q 250 809 168 726 q 443 940 332 892 q 682 989 554 989 q 920 943 810 989 q 1113 821 1031 897 q 1241 645 1194 744 q 1288 439 1288 546 m 807 433 q 771 528 807 493 q 678 564 735 564 q 614 549 644 564 q 560 508 583 533 q 524 446 538 482 q 511 368 511 410 q 547 268 511 303 q 642 233 583 233 q 705 249 675 233 q 758 291 735 264 q 794 354 781 318 q 807 433 807 390 "},"A":{"ha":1097,"x_min":33,"x_max":1064,"o":"m 1064 0 l 840 0 l 751 218 l 340 218 l 251 0 l 33 0 l 450 979 l 647 979 l 1064 0 m 675 407 l 546 722 l 417 407 l 675 407 "},"B":{"ha":1003,"x_min":117,"x_max":943,"o":"m 943 267 q 917 150 943 200 q 844 67 892 100 q 728 17 796 33 q 579 0 661 0 l 117 0 l 117 972 l 568 972 q 803 904 718 972 q 889 721 889 836 l 889 718 q 878 644 889 676 q 851 587 868 613 q 810 542 833 561 q 761 508 788 522 q 894 422 846 476 q 943 269 943 367 l 943 267 m 676 682 l 676 685 q 640 759 676 733 q 536 785 604 785 l 325 785 l 325 579 l 522 579 q 635 603 593 579 q 676 682 676 628 m 731 293 l 731 296 q 693 373 731 344 q 572 401 656 401 l 325 401 l 325 188 l 579 188 q 690 213 650 188 q 731 293 731 239 "},"C":{"ha":1025,"x_min":74,"x_max":971,"o":"m 971 157 q 893 85 933 117 q 805 30 853 53 q 700 -5 757 7 q 572 -17 643 -17 q 374 22 465 -17 q 215 128 282 61 q 111 288 149 196 q 74 483 74 379 l 74 486 q 111 681 74 590 q 215 841 149 772 q 375 949 282 910 q 581 989 468 989 q 705 978 649 989 q 807 947 761 967 q 892 900 853 928 q 964 839 931 872 l 828 682 q 712 763 771 733 q 579 792 653 792 q 466 768 518 792 q 376 703 414 744 q 318 606 339 661 q 297 489 297 551 l 297 486 q 318 368 297 424 q 376 271 339 313 q 465 205 413 229 q 579 181 517 181 q 720 211 663 181 q 835 294 778 242 l 971 157 "},"D":{"ha":1086,"x_min":117,"x_max":1013,"o":"m 1013 486 q 975 294 1013 383 q 869 140 938 206 q 705 38 800 75 q 496 0 610 0 l 117 0 l 117 972 l 496 972 q 705 935 610 972 q 869 833 800 899 q 975 680 938 768 q 1013 489 1013 592 l 1013 486 m 789 483 l 789 486 q 767 604 789 550 q 708 697 746 658 q 615 758 669 736 q 496 779 561 779 l 331 779 l 331 193 l 496 193 q 615 214 561 193 q 708 274 669 235 q 767 365 746 313 q 789 483 789 418 "},"E":{"ha":931,"x_min":117,"x_max":857,"o":"m 857 0 l 117 0 l 117 972 l 850 972 l 850 782 l 329 782 l 329 585 l 788 585 l 788 394 l 329 394 l 329 190 l 857 190 l 857 0 "},"F":{"ha":911,"x_min":117,"x_max":857,"o":"m 857 778 l 331 778 l 331 571 l 794 571 l 794 376 l 331 376 l 331 0 l 117 0 l 117 972 l 857 972 l 857 778 "},"G":{"ha":1089,"x_min":74,"x_max":1000,"o":"m 1000 138 q 822 28 925 74 q 585 -17 718 -17 q 377 21 471 -17 q 216 125 283 58 q 111 283 149 192 q 74 483 74 375 l 74 486 q 112 681 74 590 q 218 841 150 772 q 379 949 286 910 q 583 989 472 989 q 702 980 649 989 q 801 954 756 971 q 888 913 847 938 q 965 856 928 888 l 831 693 q 775 735 803 717 q 717 765 747 753 q 653 785 688 778 q 576 792 618 792 q 467 767 518 792 q 378 702 417 743 q 319 606 340 661 q 297 489 297 551 l 297 486 q 319 363 297 419 q 380 265 340 307 q 473 201 419 224 q 592 178 526 178 q 793 236 711 178 l 793 375 l 578 375 l 578 560 l 1000 560 l 1000 138 "},"H":{"ha":1056,"x_min":117,"x_max":939,"o":"m 939 0 l 725 0 l 725 390 l 331 390 l 331 0 l 117 0 l 117 972 l 331 972 l 331 588 l 725 588 l 725 972 l 939 972 l 939 0 "},"I":{"ha":467,"x_min":126,"x_max":340,"o":"m 340 0 l 126 0 l 126 972 l 340 972 l 340 0 "},"J":{"ha":783,"x_min":19,"x_max":682,"o":"m 682 336 q 657 182 682 247 q 587 73 632 117 q 478 8 542 29 q 338 -14 414 -14 q 147 29 224 -14 q 19 132 69 72 l 154 282 q 238 210 196 236 q 332 185 281 185 q 428 223 393 185 q 463 346 463 261 l 463 972 l 682 972 l 682 336 "},"K":{"ha":1014,"x_min":117,"x_max":1001,"o":"m 1001 0 l 744 0 l 443 414 l 331 297 l 331 0 l 117 0 l 117 972 l 331 972 l 331 547 l 725 972 l 983 972 l 588 560 l 1001 0 "},"L":{"ha":860,"x_min":117,"x_max":815,"o":"m 815 0 l 117 0 l 117 972 l 331 972 l 331 194 l 815 194 l 815 0 "},"M":{"ha":1206,"x_min":117,"x_max":1089,"o":"m 1089 0 l 876 0 l 876 635 l 603 219 l 597 219 l 326 631 l 326 0 l 117 0 l 117 972 l 347 972 l 603 561 l 858 972 l 1089 972 l 1089 0 "},"N":{"ha":1097,"x_min":117,"x_max":981,"o":"m 981 0 l 799 0 l 328 618 l 328 0 l 117 0 l 117 972 l 314 972 l 769 374 l 769 972 l 981 972 l 981 0 "},"O":{"ha":1181,"x_min":74,"x_max":1107,"o":"m 1107 486 q 1068 291 1107 382 q 960 131 1029 200 q 797 23 892 63 q 589 -17 701 -17 q 382 23 476 -17 q 219 130 288 63 q 112 288 150 197 q 74 483 74 379 l 74 486 q 113 681 74 590 q 220 841 151 772 q 384 949 289 910 q 592 989 479 989 q 799 949 704 989 q 962 842 893 910 q 1069 684 1031 775 q 1107 489 1107 593 l 1107 486 m 883 483 l 883 486 q 862 604 883 549 q 801 701 840 660 q 707 767 761 743 q 589 792 653 792 q 470 768 524 792 q 378 703 417 744 q 319 606 340 661 q 297 489 297 551 l 297 486 q 319 368 297 424 q 380 271 340 313 q 473 205 419 229 q 592 181 526 181 q 710 204 656 181 q 802 269 764 228 q 862 366 840 311 q 883 483 883 421 "},"P":{"ha":928,"x_min":117,"x_max":886,"o":"m 886 633 q 856 485 886 549 q 772 378 825 421 q 647 313 718 335 q 493 292 575 292 l 331 292 l 331 0 l 117 0 l 117 972 l 514 972 q 670 948 601 972 q 787 879 739 924 q 860 773 835 835 q 886 636 886 711 l 886 633 m 669 629 l 669 632 q 623 742 669 704 q 496 779 576 779 l 331 779 l 331 482 l 500 482 q 625 524 581 482 q 669 629 669 567 "},"Q":{"ha":1181,"x_min":74,"x_max":1121,"o":"m 1121 122 l 985 -29 l 878 67 q 743 5 815 26 q 589 -17 671 -17 q 382 23 476 -17 q 219 130 288 63 q 112 288 150 197 q 74 483 74 379 l 74 486 q 113 681 74 590 q 220 841 151 772 q 384 949 289 910 q 592 989 479 989 q 799 949 704 989 q 962 842 893 910 q 1069 684 1031 775 q 1107 489 1107 593 l 1107 486 q 1085 339 1107 410 q 1021 207 1063 268 l 1121 122 m 883 483 l 883 486 q 862 604 883 549 q 801 701 840 660 q 707 767 761 743 q 589 792 653 792 q 470 768 524 792 q 378 703 417 744 q 319 606 340 661 q 297 489 297 551 l 297 486 q 319 368 297 424 q 380 271 340 313 q 473 205 419 229 q 592 181 526 181 q 719 207 660 181 l 561 342 l 697 494 l 857 350 q 883 483 883 408 "},"R":{"ha":1004,"x_min":117,"x_max":957,"o":"m 957 0 l 707 0 l 499 311 l 331 311 l 331 0 l 117 0 l 117 972 l 561 972 q 831 888 735 972 q 928 651 928 803 l 928 649 q 870 456 928 531 q 719 347 813 382 l 957 0 m 711 638 l 711 640 q 667 744 711 710 q 543 779 622 779 l 331 779 l 331 500 l 547 500 q 669 538 626 500 q 711 638 711 575 "},"S":{"ha":889,"x_min":50,"x_max":819,"o":"m 819 288 q 793 159 819 215 q 719 65 767 103 q 607 6 672 26 q 463 -14 542 -14 q 244 24 351 -14 q 50 142 138 63 l 176 293 q 313 207 243 239 q 467 175 383 175 q 570 199 533 175 q 607 267 607 224 l 607 269 q 599 306 607 290 q 570 336 592 322 q 510 364 549 350 q 411 393 472 378 q 278 433 338 411 q 176 488 218 456 q 112 569 135 521 q 89 690 89 618 l 89 693 q 114 813 89 760 q 184 906 139 867 q 292 965 229 944 q 429 986 354 986 q 626 954 536 986 q 790 863 715 922 l 679 701 q 551 772 614 746 q 426 797 489 797 q 333 773 364 797 q 301 713 301 749 l 301 710 q 310 669 301 686 q 343 638 319 651 q 408 611 367 624 q 511 582 449 599 q 642 538 585 563 q 740 480 700 514 q 799 400 779 446 q 819 290 819 354 l 819 288 "},"T":{"ha":900,"x_min":47,"x_max":853,"o":"m 853 775 l 557 775 l 557 0 l 343 0 l 343 775 l 47 775 l 47 972 l 853 972 l 853 775 "},"U":{"ha":1050,"x_min":101,"x_max":949,"o":"m 949 424 q 919 231 949 313 q 833 94 889 149 q 699 12 778 39 q 522 -15 619 -15 q 214 93 326 -15 q 101 417 101 201 l 101 972 l 315 972 l 315 422 q 371 242 315 303 q 525 182 426 182 q 679 240 624 182 q 735 415 735 299 l 735 972 l 949 972 l 949 424 "},"V":{"ha":1042,"x_min":33,"x_max":1008,"o":"m 1008 972 l 615 -7 l 426 -7 l 33 972 l 269 972 l 524 288 l 778 972 l 1008 972 "},"W":{"ha":1558,"x_min":42,"x_max":1517,"o":"m 1517 972 l 1185 -7 l 999 -7 l 779 629 l 560 -7 l 374 -7 l 42 972 l 271 972 l 472 314 l 690 975 l 874 975 l 1092 314 l 1293 972 l 1517 972 "},"X":{"ha":1017,"x_min":43,"x_max":974,"o":"m 974 0 l 724 0 l 506 333 l 286 0 l 43 0 l 382 494 l 57 972 l 307 972 l 511 657 l 717 972 l 960 972 l 635 497 l 974 0 "},"Y":{"ha":994,"x_min":17,"x_max":978,"o":"m 978 972 l 604 388 l 604 0 l 390 0 l 390 383 l 17 972 l 267 972 l 499 582 l 735 972 l 978 972 "},"Z":{"ha":983,"x_min":88,"x_max":897,"o":"m 897 0 l 88 0 l 88 163 l 622 785 l 104 785 l 104 972 l 897 972 l 897 810 l 363 188 l 897 188 l 897 0 "},"[":{"ha":646,"x_min":115,"x_max":564,"o":"m 564 972 l 564 807 l 318 807 l 318 -15 l 564 -15 l 564 -181 l 115 -181 l 115 972 l 564 972 "},"\\":{"ha":736,"x_min":-19,"x_max":775,"o":"m 160 1108 l 775 -178 l 596 -178 l -19 1108 l 160 1108 "},"]":{"ha":646,"x_min":82,"x_max":531,"o":"m 82 972 l 531 972 l 531 -181 l 82 -181 l 82 -15 l 328 -15 l 328 807 l 82 807 l 82 972 "},"^":{"ha":694,"x_min":69,"x_max":625,"o":"m 346 847 l 219 685 l 69 685 l 275 972 l 419 972 l 625 685 l 472 685 l 346 847 "},"_":{"ha":833,"x_min":-3,"x_max":836,"o":"m -3 -61 l 836 -61 l 836 -222 l -3 -222 l -3 -61 "},"`":{"ha":694,"x_min":153,"x_max":492,"o":"m 492 826 l 331 826 l 153 993 l 335 1072 l 492 826 "},"a":{"ha":822,"x_min":50,"x_max":735,"o":"m 735 0 l 531 0 l 531 81 q 438 12 492 38 q 306 -14 383 -14 q 206 1 253 -14 q 125 44 160 15 q 70 116 90 74 q 50 214 50 158 l 50 217 q 72 322 50 278 q 134 396 94 367 q 228 440 174 425 q 350 454 283 454 q 449 446 407 454 q 532 424 492 438 l 532 436 q 492 538 532 503 q 372 572 451 572 q 265 562 311 572 q 167 532 218 551 l 114 693 q 242 736 175 719 q 403 753 308 753 q 656 668 576 753 q 735 432 735 583 l 735 0 m 535 263 l 535 300 q 473 320 507 313 q 400 328 439 328 q 293 301 332 328 q 254 225 254 275 l 254 222 q 286 156 254 179 q 369 132 318 132 q 490 168 444 132 q 535 263 535 204 "},"b":{"ha":938,"x_min":94,"x_max":876,"o":"m 876 371 q 848 206 876 278 q 773 85 819 135 q 665 11 726 36 q 538 -14 604 -14 q 398 19 453 -14 q 306 97 343 53 l 306 0 l 94 0 l 94 1014 l 306 1014 l 306 638 q 399 724 344 690 q 538 758 454 758 q 664 733 603 758 q 772 659 725 708 q 848 538 819 610 q 876 374 876 467 l 876 371 m 665 371 l 665 374 q 651 458 665 419 q 611 523 636 496 q 553 565 586 550 q 483 579 521 579 q 413 565 446 579 q 356 523 381 550 q 317 458 332 496 q 303 374 303 419 l 303 371 q 317 287 303 325 q 356 222 332 249 q 413 180 381 194 q 483 165 446 165 q 553 180 521 165 q 611 222 586 194 q 651 286 636 249 q 665 371 665 324 "},"c":{"ha":793,"x_min":58,"x_max":750,"o":"m 750 119 q 626 22 696 60 q 446 -17 557 -17 q 291 14 363 -17 q 168 97 219 44 q 88 219 117 149 q 58 368 58 289 l 58 371 q 88 521 58 450 q 168 644 117 592 q 291 728 219 697 q 449 758 363 758 q 624 725 554 758 q 746 633 693 692 l 617 494 q 542 554 581 532 q 447 576 504 576 q 374 560 407 576 q 317 517 342 544 q 280 452 293 489 q 267 374 267 415 l 267 371 q 280 290 267 328 q 318 225 293 253 q 378 181 343 197 q 456 165 413 165 q 548 187 508 165 q 626 244 588 208 l 750 119 "},"d":{"ha":938,"x_min":61,"x_max":843,"o":"m 843 0 l 632 0 l 632 107 q 538 20 593 54 q 400 -14 483 -14 q 274 11 335 -14 q 165 85 213 36 q 90 206 118 135 q 61 371 61 278 l 61 374 q 90 538 61 467 q 165 659 118 610 q 272 733 211 708 q 400 758 333 758 q 540 725 485 758 q 632 647 594 692 l 632 1014 l 843 1014 l 843 0 m 635 371 l 635 374 q 620 458 635 419 q 581 523 606 496 q 524 565 557 550 q 454 579 492 579 q 384 565 417 579 q 326 523 351 550 q 287 458 301 496 q 272 374 272 421 l 272 371 q 287 287 272 325 q 326 222 301 249 q 384 180 351 194 q 454 165 417 165 q 524 180 492 165 q 581 222 557 194 q 620 287 606 249 q 635 371 635 325 "},"e":{"ha":851,"x_min":58,"x_max":789,"o":"m 789 351 q 788 325 789 336 q 786 299 788 314 l 268 299 q 331 190 283 226 q 450 153 379 153 q 544 171 503 153 q 631 229 586 189 l 751 122 q 624 20 699 57 q 447 -17 549 -17 q 292 11 364 -17 q 169 90 221 39 q 88 212 117 142 q 58 368 58 282 l 58 371 q 85 521 58 450 q 161 644 113 592 q 277 728 210 697 q 426 758 344 758 q 588 725 519 758 q 701 635 656 692 q 767 506 746 579 q 789 354 789 433 l 789 351 m 583 431 q 533 545 574 501 q 426 589 493 589 q 319 546 360 589 q 265 431 278 503 l 583 431 "},"f":{"ha":531,"x_min":43,"x_max":511,"o":"m 511 828 q 465 841 488 836 q 415 846 443 846 q 339 765 339 846 l 339 736 l 510 736 l 510 564 l 342 564 l 342 0 l 131 0 l 131 564 l 43 564 l 43 738 l 131 738 l 131 785 q 190 966 131 908 q 361 1024 249 1024 q 447 1018 411 1024 q 511 1003 482 1013 l 511 828 "},"g":{"ha":938,"x_min":61,"x_max":843,"o":"m 843 168 q 817 -12 843 63 q 740 -133 792 -86 q 610 -203 688 -181 q 428 -225 532 -225 q 253 -205 336 -225 q 99 -147 169 -185 l 171 11 q 288 -39 229 -21 q 422 -57 347 -57 q 583 -6 531 -57 q 635 146 635 46 l 635 182 q 532 93 588 125 q 392 61 476 61 q 267 84 326 61 q 161 151 207 107 q 88 260 115 196 q 61 408 61 325 l 61 411 q 89 559 61 494 q 163 668 117 624 q 268 735 208 713 q 392 758 328 758 q 533 726 478 758 q 632 647 589 694 l 632 744 l 843 744 l 843 168 m 635 408 l 635 411 q 621 481 635 449 q 583 535 607 513 q 525 571 558 558 q 453 583 492 583 q 381 571 414 583 q 324 535 349 558 q 286 481 300 513 q 272 411 272 449 l 272 408 q 324 283 272 331 q 453 236 375 236 q 525 249 492 236 q 583 284 558 261 q 621 339 607 307 q 635 408 635 371 "},"h":{"ha":865,"x_min":94,"x_max":776,"o":"m 776 0 l 565 0 l 565 415 q 532 528 565 490 q 438 567 499 567 q 341 528 376 567 q 306 415 306 490 l 306 0 l 94 0 l 94 1014 l 306 1014 l 306 639 q 345 684 324 663 q 393 722 367 706 q 451 749 419 739 q 524 758 483 758 q 710 685 644 758 q 776 482 776 611 l 776 0 "},"i":{"ha":419,"x_min":99,"x_max":321,"o":"m 321 826 l 99 826 l 99 1014 l 321 1014 l 321 826 m 315 0 l 104 0 l 104 744 l 315 744 l 315 0 "},"j":{"ha":419,"x_min":-15,"x_max":321,"o":"m 321 826 l 99 826 l 99 1014 l 321 1014 l 321 826 m 315 13 q 255 -169 315 -111 q 76 -226 194 -226 q 27 -224 47 -226 q -15 -218 7 -222 l -15 -53 q 29 -57 10 -57 q 83 -37 63 -57 q 104 29 104 -18 l 104 744 l 315 744 l 315 13 "},"k":{"ha":822,"x_min":94,"x_max":815,"o":"m 815 0 l 574 0 l 379 304 l 306 226 l 306 0 l 94 0 l 94 1014 l 306 1014 l 306 474 l 553 744 l 806 744 l 522 451 l 815 0 "},"l":{"ha":419,"x_min":104,"x_max":315,"o":"m 315 0 l 104 0 l 104 1014 l 315 1014 l 315 0 "},"m":{"ha":1319,"x_min":94,"x_max":1231,"o":"m 1231 0 l 1019 0 l 1019 415 q 988 528 1019 490 q 896 567 956 567 q 802 528 836 567 q 768 415 768 490 l 768 0 l 557 0 l 557 415 q 525 528 557 490 q 433 567 493 567 q 340 528 374 567 q 306 415 306 490 l 306 0 l 94 0 l 94 744 l 306 744 l 306 639 q 345 684 324 663 q 393 722 367 706 q 452 749 419 739 q 525 758 485 758 q 652 728 599 758 q 735 640 706 697 q 843 728 783 699 q 979 758 903 758 q 1164 689 1097 758 q 1231 485 1231 619 l 1231 0 "},"n":{"ha":865,"x_min":94,"x_max":776,"o":"m 776 0 l 565 0 l 565 415 q 532 528 565 490 q 438 567 499 567 q 341 528 376 567 q 306 415 306 490 l 306 0 l 94 0 l 94 744 l 306 744 l 306 639 q 345 684 324 663 q 393 722 367 706 q 451 749 419 739 q 524 758 483 758 q 710 685 644 758 q 776 482 776 611 l 776 0 "},"o":{"ha":922,"x_min":58,"x_max":864,"o":"m 864 371 q 833 220 864 290 q 749 97 803 150 q 621 14 694 44 q 460 -17 547 -17 q 300 13 374 -17 q 173 95 226 43 q 89 217 119 147 q 58 368 58 288 l 58 371 q 89 522 58 451 q 174 644 119 592 q 301 728 228 697 q 463 758 375 758 q 622 728 549 758 q 749 647 696 699 q 833 524 803 594 q 864 374 864 454 l 864 371 m 656 368 l 656 371 q 642 449 656 413 q 601 515 628 486 q 539 560 575 543 q 460 576 503 576 q 378 560 414 576 q 318 517 343 544 q 280 452 293 489 q 267 374 267 415 l 267 371 q 281 292 267 329 q 321 227 294 256 q 383 182 347 199 q 463 165 418 165 q 544 181 508 165 q 604 225 579 197 q 642 290 629 253 q 656 368 656 326 "},"p":{"ha":938,"x_min":94,"x_max":876,"o":"m 876 371 q 848 206 876 278 q 773 85 819 135 q 665 11 726 36 q 538 -14 604 -14 q 398 19 453 -14 q 306 97 343 53 l 306 -222 l 94 -222 l 94 744 l 306 744 l 306 638 q 399 724 344 690 q 538 758 454 758 q 664 733 603 758 q 772 659 725 708 q 848 538 819 610 q 876 374 876 467 l 876 371 m 665 371 l 665 374 q 651 458 665 419 q 611 523 636 496 q 553 565 586 550 q 483 579 521 579 q 413 565 446 579 q 356 523 381 550 q 317 458 332 496 q 303 374 303 419 l 303 371 q 317 287 303 325 q 356 222 332 249 q 413 180 381 194 q 483 165 446 165 q 553 180 521 165 q 611 222 586 194 q 651 286 636 249 q 665 371 665 324 "},"q":{"ha":938,"x_min":61,"x_max":843,"o":"m 843 -222 l 632 -222 l 632 107 q 538 20 593 54 q 400 -14 483 -14 q 274 11 335 -14 q 165 85 213 36 q 90 206 118 135 q 61 371 61 278 l 61 374 q 90 538 61 467 q 165 659 118 610 q 272 733 211 708 q 400 758 333 758 q 540 725 485 758 q 632 647 594 692 l 632 744 l 843 744 l 843 -222 m 635 371 l 635 374 q 620 458 635 419 q 581 523 606 496 q 524 565 557 550 q 454 579 492 579 q 384 565 417 579 q 326 523 351 550 q 287 458 301 496 q 272 374 272 421 l 272 371 q 287 287 272 325 q 326 222 301 249 q 384 180 351 194 q 454 165 417 165 q 524 180 492 165 q 581 222 557 194 q 620 287 606 249 q 635 371 635 325 "},"r":{"ha":581,"x_min":94,"x_max":543,"o":"m 543 538 l 532 538 q 366 474 426 538 q 306 275 306 410 l 306 0 l 94 0 l 94 744 l 306 744 l 306 594 q 393 717 338 671 q 543 758 449 763 l 543 538 "},"s":{"ha":697,"x_min":36,"x_max":640,"o":"m 640 226 q 619 119 640 164 q 558 44 597 74 q 467 1 519 15 q 356 -14 415 -14 q 194 13 276 -14 q 36 99 111 40 l 126 238 q 248 171 188 193 q 361 149 308 149 q 428 164 407 149 q 450 204 450 179 l 450 207 q 438 236 450 224 q 403 258 425 249 q 354 275 382 267 q 296 293 326 283 q 217 320 257 304 q 146 362 178 336 q 94 425 114 388 q 74 517 74 463 l 74 519 q 95 620 74 576 q 153 694 117 664 q 240 740 190 725 q 346 756 289 756 q 490 733 417 756 q 624 669 563 710 l 543 524 q 435 574 488 556 q 342 593 382 593 q 283 578 303 593 q 264 542 264 564 l 264 539 q 276 512 264 524 q 310 490 289 500 q 358 469 331 479 q 415 450 385 460 q 494 420 454 438 q 567 378 535 403 q 619 317 599 353 q 640 229 640 281 l 640 226 "},"t":{"ha":576,"x_min":40,"x_max":515,"o":"m 513 31 q 439 -1 479 11 q 346 -12 399 -12 q 258 -2 297 -12 q 190 35 218 8 q 145 103 161 61 q 129 211 129 146 l 129 564 l 40 564 l 40 744 l 129 744 l 129 935 l 340 935 l 340 744 l 515 744 l 515 564 l 340 564 l 340 246 q 408 174 340 174 q 513 200 464 174 l 513 31 "},"u":{"ha":865,"x_min":89,"x_max":771,"o":"m 771 0 l 560 0 l 560 106 q 520 60 542 82 q 472 22 499 39 q 414 -4 446 6 q 342 -14 382 -14 q 155 60 221 -14 q 89 263 89 133 l 89 744 l 300 744 l 300 329 q 333 216 300 254 q 428 178 367 178 q 524 216 489 178 q 560 329 560 254 l 560 744 l 771 744 l 771 0 "},"v":{"ha":833,"x_min":28,"x_max":806,"o":"m 806 744 l 513 -6 l 321 -6 l 28 744 l 251 744 l 418 246 l 586 744 l 806 744 "},"w":{"ha":1196,"x_min":33,"x_max":1163,"o":"m 1163 744 l 931 -6 l 740 -6 l 597 451 l 451 -6 l 263 -6 l 33 744 l 247 744 l 367 293 l 507 747 l 689 747 l 831 292 l 953 744 l 1163 744 "},"x":{"ha":811,"x_min":32,"x_max":779,"o":"m 779 0 l 553 0 l 403 232 l 253 0 l 32 0 l 293 378 l 42 744 l 268 744 l 407 528 l 547 744 l 768 744 l 517 382 l 779 0 "},"y":{"ha":833,"x_min":28,"x_max":803,"o":"m 803 744 l 517 -18 q 472 -115 496 -75 q 420 -179 449 -154 q 356 -215 392 -204 q 272 -226 319 -226 q 169 -212 214 -226 q 85 -175 125 -199 l 156 -22 q 201 -43 176 -35 q 246 -51 225 -51 q 290 -41 274 -51 q 319 -3 306 -31 l 28 744 l 251 744 l 421 238 l 583 744 l 803 744 "},"z":{"ha":782,"x_min":69,"x_max":717,"o":"m 717 0 l 69 0 l 69 149 l 454 574 l 82 574 l 82 744 l 717 744 l 717 596 l 331 171 l 717 171 l 717 0 "},"{":{"ha":681,"x_min":68,"x_max":615,"o":"m 615 853 q 526 822 560 838 q 475 786 493 806 q 451 743 457 767 q 446 688 446 719 q 448 637 446 667 q 450 585 450 607 q 413 465 450 508 q 306 399 376 422 q 413 332 376 375 q 450 213 450 289 q 448 160 450 190 q 446 110 446 131 q 451 54 446 78 q 475 11 457 31 q 526 -24 493 -8 q 615 -56 560 -40 l 578 -196 q 419 -154 482 -179 q 320 -95 357 -129 q 268 -17 283 -61 q 253 79 253 26 q 253 100 253 88 q 255 126 254 113 q 256 153 256 140 q 257 175 257 167 q 222 288 257 257 q 104 318 186 318 l 68 318 l 68 479 l 104 479 q 222 510 186 479 q 257 622 257 540 q 256 644 257 631 q 255 671 256 657 q 253 697 254 685 q 253 718 253 710 q 268 815 253 771 q 320 892 283 858 q 419 951 357 926 q 578 993 482 976 l 615 853 "},"|":{"ha":486,"x_min":160,"x_max":326,"o":"m 326 -178 l 160 -178 l 160 1108 l 326 1108 l 326 -178 "},"}":{"ha":681,"x_min":65,"x_max":613,"o":"m 613 318 l 576 318 q 459 288 494 318 q 424 175 424 257 q 424 153 424 167 q 426 126 425 140 q 427 100 426 113 q 428 79 428 88 q 413 -17 428 26 q 360 -95 397 -61 q 261 -154 324 -129 q 103 -196 199 -179 l 65 -56 q 154 -24 121 -40 q 206 11 188 -8 q 229 54 224 31 q 235 110 235 78 q 233 160 235 131 q 231 213 231 190 q 267 332 231 289 q 375 399 304 375 q 267 465 304 422 q 231 585 231 508 q 233 637 231 607 q 235 688 235 667 q 229 743 235 719 q 206 786 224 767 q 154 822 188 806 q 65 853 121 838 l 103 993 q 261 951 199 976 q 360 892 324 926 q 413 815 397 858 q 428 718 428 771 q 427 697 428 710 q 426 671 426 685 q 424 644 425 657 q 424 622 424 631 q 459 510 424 540 q 576 479 494 479 l 613 479 l 613 318 "},"~":{"ha":708,"x_min":68,"x_max":640,"o":"m 640 517 q 578 377 617 429 q 468 325 540 325 q 406 333 436 325 q 350 352 376 342 q 301 371 324 363 q 260 379 278 379 q 212 362 228 379 q 181 311 196 344 l 68 346 q 95 424 81 389 q 130 485 110 460 q 177 524 150 510 q 240 538 204 538 q 302 529 272 538 q 358 510 332 521 q 407 492 385 500 q 449 483 429 483 q 497 501 481 483 q 528 551 513 518 l 640 517 "},"Ä":{"ha":1097,"x_min":33,"x_max":1064,"o":"m 1064 0 l 840 0 l 751 218 l 340 218 l 251 0 l 33 0 l 450 979 l 647 979 l 1064 0 m 675 407 l 546 722 l 417 407 l 675 407 m 799 1049 l 596 1049 l 596 1236 l 799 1236 l 799 1049 m 501 1049 l 299 1049 l 299 1236 l 501 1236 l 501 1049 "},"Å":{"ha":1097,"x_min":33,"x_max":1064,"o":"m 1064 0 l 840 0 l 751 218 l 340 218 l 251 0 l 33 0 l 439 954 q 397 1009 413 978 q 381 1076 381 1040 q 394 1140 381 1110 q 431 1191 408 1169 q 485 1226 454 1213 q 549 1239 515 1239 q 613 1226 582 1239 q 666 1191 643 1213 q 703 1140 689 1169 q 717 1076 717 1110 q 701 1009 717 1040 q 658 954 685 978 l 1064 0 m 635 1076 q 610 1138 635 1113 q 549 1163 585 1163 q 488 1138 513 1163 q 463 1076 463 1113 q 488 1015 463 1040 q 549 990 513 990 q 610 1015 585 990 q 635 1076 635 1040 m 675 407 l 546 722 l 417 407 l 675 407 "},"Ç":{"ha":1025,"x_min":74,"x_max":971,"o":"m 453 -3 q 299 61 369 17 q 179 170 229 106 q 101 315 129 235 q 74 485 74 394 q 111 681 74 589 q 215 841 149 772 q 375 949 282 910 q 581 989 468 989 q 705 978 649 989 q 807 947 761 967 q 892 900 853 928 q 964 839 931 872 l 828 682 q 712 763 771 733 q 579 792 653 792 q 466 768 518 792 q 376 703 414 744 q 318 606 339 661 q 297 488 297 550 q 318 369 297 425 q 376 271 339 313 q 465 205 413 229 q 579 181 517 181 q 720 211 663 181 q 835 294 778 242 l 971 157 q 899 89 936 119 q 817 36 861 58 q 722 1 774 14 q 608 -15 671 -12 l 518 -240 l 342 -167 l 453 -3 "},"É":{"ha":931,"x_min":117,"x_max":857,"o":"m 857 0 l 117 0 l 117 972 l 850 972 l 850 782 l 329 782 l 329 585 l 788 585 l 788 394 l 329 394 l 329 190 l 857 190 l 857 0 m 528 1049 l 367 1049 l 524 1294 l 706 1215 l 528 1049 "},"Ñ":{"ha":1097,"x_min":117,"x_max":981,"o":"m 981 0 l 799 0 l 328 618 l 328 0 l 117 0 l 117 972 l 314 972 l 769 374 l 769 972 l 981 972 l 981 0 m 835 1240 q 773 1101 811 1153 q 663 1049 735 1049 q 601 1057 631 1049 q 544 1076 571 1065 q 495 1094 518 1086 q 454 1103 472 1103 q 406 1085 422 1103 q 375 1035 390 1068 l 263 1069 q 290 1148 275 1113 q 324 1208 304 1183 q 372 1247 344 1233 q 435 1261 399 1261 q 497 1253 467 1261 q 553 1234 526 1244 q 601 1215 579 1224 q 643 1207 624 1207 q 691 1224 675 1207 q 722 1275 707 1242 l 835 1240 "},"Ö":{"ha":1181,"x_min":74,"x_max":1107,"o":"m 1107 486 q 1068 291 1107 382 q 960 131 1029 200 q 797 23 892 63 q 589 -17 701 -17 q 382 23 476 -17 q 219 130 288 63 q 112 288 150 197 q 74 483 74 379 l 74 486 q 113 681 74 590 q 220 841 151 772 q 384 949 289 910 q 592 989 479 989 q 799 949 704 989 q 962 842 893 910 q 1069 684 1031 775 q 1107 489 1107 593 l 1107 486 m 883 483 l 883 486 q 862 604 883 549 q 801 701 840 660 q 707 767 761 743 q 589 792 653 792 q 470 768 524 792 q 378 703 417 744 q 319 606 340 661 q 297 489 297 551 l 297 486 q 319 368 297 424 q 380 271 340 313 q 473 205 419 229 q 592 181 526 181 q 710 204 656 181 q 802 269 764 228 q 862 366 840 311 q 883 483 883 421 m 840 1049 l 638 1049 l 638 1236 l 840 1236 l 840 1049 m 543 1049 l 340 1049 l 340 1236 l 543 1236 l 543 1049 "},"Ü":{"ha":1050,"x_min":101,"x_max":949,"o":"m 949 424 q 919 231 949 313 q 833 94 889 149 q 699 12 778 39 q 522 -15 619 -15 q 214 93 326 -15 q 101 417 101 201 l 101 972 l 315 972 l 315 422 q 371 242 315 303 q 525 182 426 182 q 679 240 624 182 q 735 415 735 299 l 735 972 l 949 972 l 949 424 m 775 1049 l 572 1049 l 572 1236 l 775 1236 l 775 1049 m 478 1049 l 275 1049 l 275 1236 l 478 1236 l 478 1049 "},"á":{"ha":822,"x_min":50,"x_max":735,"o":"m 735 0 l 531 0 l 531 81 q 438 12 492 38 q 306 -14 383 -14 q 206 1 253 -14 q 125 44 160 15 q 70 116 90 74 q 50 214 50 158 l 50 217 q 72 322 50 278 q 134 396 94 367 q 228 440 174 425 q 350 454 283 454 q 449 446 407 454 q 532 424 492 438 l 532 436 q 492 538 532 503 q 372 572 451 572 q 265 562 311 572 q 167 532 218 551 l 114 693 q 242 736 175 719 q 403 753 308 753 q 656 668 576 753 q 735 432 735 583 l 735 0 m 535 263 l 535 300 q 473 320 507 313 q 400 328 439 328 q 293 301 332 328 q 254 225 254 275 l 254 222 q 286 156 254 179 q 369 132 318 132 q 490 168 444 132 q 535 263 535 204 m 476 826 l 315 826 l 472 1072 l 654 993 l 476 826 "},"à":{"ha":822,"x_min":50,"x_max":735,"o":"m 735 0 l 531 0 l 531 81 q 438 12 492 38 q 306 -14 383 -14 q 206 1 253 -14 q 125 44 160 15 q 70 116 90 74 q 50 214 50 158 l 50 217 q 72 322 50 278 q 134 396 94 367 q 228 440 174 425 q 350 454 283 454 q 449 446 407 454 q 532 424 492 438 l 532 436 q 492 538 532 503 q 372 572 451 572 q 265 562 311 572 q 167 532 218 551 l 114 693 q 242 736 175 719 q 403 753 308 753 q 656 668 576 753 q 735 432 735 583 l 735 0 m 535 263 l 535 300 q 473 320 507 313 q 400 328 439 328 q 293 301 332 328 q 254 225 254 275 l 254 222 q 286 156 254 179 q 369 132 318 132 q 490 168 444 132 q 535 263 535 204 m 514 826 l 353 826 l 175 993 l 357 1072 l 514 826 "},"â":{"ha":822,"x_min":50,"x_max":735,"o":"m 735 0 l 531 0 l 531 81 q 438 12 492 38 q 306 -14 383 -14 q 206 1 253 -14 q 125 44 160 15 q 70 116 90 74 q 50 214 50 158 l 50 217 q 72 322 50 278 q 134 396 94 367 q 228 440 174 425 q 350 454 283 454 q 449 446 407 454 q 532 424 492 438 l 532 436 q 492 538 532 503 q 372 572 451 572 q 265 562 311 572 q 167 532 218 551 l 114 693 q 242 736 175 719 q 403 753 308 753 q 656 668 576 753 q 735 432 735 583 l 735 0 m 535 263 l 535 300 q 473 320 507 313 q 400 328 439 328 q 293 301 332 328 q 254 225 254 275 l 254 222 q 286 156 254 179 q 369 132 318 132 q 490 168 444 132 q 535 263 535 204 m 407 918 l 297 826 l 138 826 l 308 1044 l 508 1044 l 679 826 l 517 826 l 407 918 "},"ä":{"ha":822,"x_min":50,"x_max":735,"o":"m 735 0 l 531 0 l 531 81 q 438 12 492 38 q 306 -14 383 -14 q 206 1 253 -14 q 125 44 160 15 q 70 116 90 74 q 50 214 50 158 l 50 217 q 72 322 50 278 q 134 396 94 367 q 228 440 174 425 q 350 454 283 454 q 449 446 407 454 q 532 424 492 438 l 532 436 q 492 538 532 503 q 372 572 451 572 q 265 562 311 572 q 167 532 218 551 l 114 693 q 242 736 175 719 q 403 753 308 753 q 656 668 576 753 q 735 432 735 583 l 735 0 m 535 263 l 535 300 q 473 320 507 313 q 400 328 439 328 q 293 301 332 328 q 254 225 254 275 l 254 222 q 286 156 254 179 q 369 132 318 132 q 490 168 444 132 q 535 263 535 204 m 658 826 l 456 826 l 456 1014 l 658 1014 l 658 826 m 361 826 l 158 826 l 158 1014 l 361 1014 l 361 826 "},"ã":{"ha":822,"x_min":50,"x_max":735,"o":"m 735 0 l 531 0 l 531 81 q 438 12 492 38 q 306 -14 383 -14 q 206 1 253 -14 q 125 44 160 15 q 70 116 90 74 q 50 214 50 158 l 50 217 q 72 322 50 278 q 134 396 94 367 q 228 440 174 425 q 350 454 283 454 q 449 446 407 454 q 532 424 492 438 l 532 436 q 492 538 532 503 q 372 572 451 572 q 265 562 311 572 q 167 532 218 551 l 114 693 q 242 736 175 719 q 403 753 308 753 q 656 668 576 753 q 735 432 735 583 l 735 0 m 535 263 l 535 300 q 473 320 507 313 q 400 328 439 328 q 293 301 332 328 q 254 225 254 275 l 254 222 q 286 156 254 179 q 369 132 318 132 q 490 168 444 132 q 535 263 535 204 m 697 1018 q 635 878 674 931 q 525 826 597 826 q 463 835 493 826 q 407 853 433 843 q 358 872 381 864 q 317 881 335 881 q 269 863 285 881 q 238 813 253 846 l 125 847 q 152 926 138 890 q 187 986 167 961 q 234 1025 207 1011 q 297 1039 261 1039 q 359 1031 329 1039 q 415 1012 389 1022 q 464 993 442 1001 q 506 985 486 985 q 553 1002 538 985 q 585 1053 569 1019 l 697 1018 "},"å":{"ha":822,"x_min":50,"x_max":735,"o":"m 735 0 l 531 0 l 531 81 q 438 12 492 38 q 306 -14 383 -14 q 206 1 253 -14 q 125 44 160 15 q 70 116 90 74 q 50 214 50 158 l 50 217 q 72 322 50 278 q 134 396 94 367 q 228 440 174 425 q 350 454 283 454 q 449 446 407 454 q 532 424 492 438 l 532 436 q 492 538 532 503 q 372 572 451 572 q 265 562 311 572 q 167 532 218 551 l 114 693 q 242 736 175 719 q 403 753 308 753 q 656 668 576 753 q 735 432 735 583 l 735 0 m 535 263 l 535 300 q 473 320 507 313 q 400 328 439 328 q 293 301 332 328 q 254 225 254 275 l 254 222 q 286 156 254 179 q 369 132 318 132 q 490 168 444 132 q 535 263 535 204 m 576 986 q 563 923 576 953 q 526 872 549 893 q 472 837 503 850 q 408 824 442 824 q 344 837 375 824 q 291 872 314 850 q 254 923 268 893 q 240 986 240 953 q 254 1049 240 1019 q 291 1101 268 1079 q 344 1135 314 1122 q 408 1149 375 1149 q 472 1135 442 1149 q 526 1101 503 1122 q 563 1049 549 1079 q 576 986 576 1019 m 494 986 q 469 1047 494 1022 q 408 1072 444 1072 q 347 1047 372 1072 q 322 986 322 1022 q 347 925 322 950 q 408 900 372 900 q 469 925 444 900 q 494 986 494 950 "},"ç":{"ha":793,"x_min":58,"x_max":750,"o":"m 328 0 q 217 53 267 18 q 133 138 168 89 q 78 245 97 186 q 58 369 58 304 q 88 521 58 450 q 168 644 117 592 q 291 728 219 697 q 449 758 363 758 q 624 725 554 758 q 746 633 693 692 l 617 494 q 542 554 581 532 q 447 576 504 576 q 374 560 407 576 q 317 516 342 544 q 280 451 293 488 q 267 372 267 414 q 280 292 267 329 q 318 226 293 254 q 378 181 343 197 q 456 165 413 165 q 548 187 508 165 q 626 244 588 208 l 750 119 q 638 28 700 65 q 481 -15 576 -8 l 390 -240 l 214 -167 l 328 0 "},"é":{"ha":851,"x_min":58,"x_max":789,"o":"m 789 351 q 788 325 789 336 q 786 299 788 314 l 268 299 q 331 190 283 226 q 450 153 379 153 q 544 171 503 153 q 631 229 586 189 l 751 122 q 624 20 699 57 q 447 -17 549 -17 q 292 11 364 -17 q 169 90 221 39 q 88 212 117 142 q 58 368 58 282 l 58 371 q 85 521 58 450 q 161 644 113 592 q 277 728 210 697 q 426 758 344 758 q 588 725 519 758 q 701 635 656 692 q 767 506 746 579 q 789 354 789 433 l 789 351 m 583 431 q 533 545 574 501 q 426 589 493 589 q 319 546 360 589 q 265 431 278 503 l 583 431 m 503 826 l 342 826 l 499 1072 l 681 993 l 503 826 "},"è":{"ha":851,"x_min":58,"x_max":789,"o":"m 789 351 q 788 325 789 336 q 786 299 788 314 l 268 299 q 331 190 283 226 q 450 153 379 153 q 544 171 503 153 q 631 229 586 189 l 751 122 q 624 20 699 57 q 447 -17 549 -17 q 292 11 364 -17 q 169 90 221 39 q 88 212 117 142 q 58 368 58 282 l 58 371 q 85 521 58 450 q 161 644 113 592 q 277 728 210 697 q 426 758 344 758 q 588 725 519 758 q 701 635 656 692 q 767 506 746 579 q 789 354 789 433 l 789 351 m 583 431 q 533 545 574 501 q 426 589 493 589 q 319 546 360 589 q 265 431 278 503 l 583 431 m 508 826 l 347 826 l 169 993 l 351 1072 l 508 826 "},"ê":{"ha":851,"x_min":58,"x_max":789,"o":"m 789 351 q 788 325 789 336 q 786 299 788 314 l 268 299 q 331 190 283 226 q 450 153 379 153 q 544 171 503 153 q 631 229 586 189 l 751 122 q 624 20 699 57 q 447 -17 549 -17 q 292 11 364 -17 q 169 90 221 39 q 88 212 117 142 q 58 368 58 282 l 58 371 q 85 521 58 450 q 161 644 113 592 q 277 728 210 697 q 426 758 344 758 q 588 725 519 758 q 701 635 656 692 q 767 506 746 579 q 789 354 789 433 l 789 351 m 583 431 q 533 545 574 501 q 426 589 493 589 q 319 546 360 589 q 265 431 278 503 l 583 431 m 424 918 l 314 826 l 154 826 l 325 1044 l 525 1044 l 696 826 l 533 826 l 424 918 "},"ë":{"ha":851,"x_min":58,"x_max":789,"o":"m 789 351 q 788 325 789 336 q 786 299 788 314 l 268 299 q 331 190 283 226 q 450 153 379 153 q 544 171 503 153 q 631 229 586 189 l 751 122 q 624 20 699 57 q 447 -17 549 -17 q 292 11 364 -17 q 169 90 221 39 q 88 212 117 142 q 58 368 58 282 l 58 371 q 85 521 58 450 q 161 644 113 592 q 277 728 210 697 q 426 758 344 758 q 588 725 519 758 q 701 635 656 692 q 767 506 746 579 q 789 354 789 433 l 789 351 m 583 431 q 533 545 574 501 q 426 589 493 589 q 319 546 360 589 q 265 431 278 503 l 583 431 m 675 826 l 472 826 l 472 1014 l 675 1014 l 675 826 m 378 826 l 175 826 l 175 1014 l 378 1014 l 378 826 "},"í":{"ha":419,"x_min":104,"x_max":458,"o":"m 315 0 l 104 0 l 104 744 l 315 744 l 315 0 m 281 826 l 119 826 l 276 1072 l 458 993 l 281 826 "},"ì":{"ha":419,"x_min":104,"x_max":444,"o":"m 315 0 l 104 0 l 104 744 l 315 744 l 315 0 m 444 826 l 283 826 l 106 993 l 288 1072 l 444 826 "},"î":{"ha":419,"x_min":104,"x_max":646,"o":"m 315 0 l 104 0 l 104 744 l 315 744 l 315 0 m 374 918 l 264 826 l 104 826 l 275 1044 l 475 1044 l 646 826 l 483 826 l 374 918 "},"ï":{"ha":419,"x_min":104,"x_max":604,"o":"m 315 0 l 104 0 l 104 744 l 315 744 l 315 0 m 604 826 l 401 826 l 401 1014 l 604 1014 l 604 826 m 307 826 l 104 826 l 104 1014 l 307 1014 l 307 826 "},"ñ":{"ha":865,"x_min":94,"x_max":776,"o":"m 776 0 l 565 0 l 565 415 q 532 528 565 490 q 438 567 499 567 q 341 528 376 567 q 306 415 306 490 l 306 0 l 94 0 l 94 744 l 306 744 l 306 639 q 345 684 324 663 q 393 722 367 706 q 451 749 419 739 q 524 758 483 758 q 710 685 644 758 q 776 482 776 611 l 776 0 m 725 1018 q 663 878 701 931 q 553 826 625 826 q 491 835 521 826 q 435 853 461 843 q 385 872 408 864 q 344 881 363 881 q 297 863 313 881 q 265 813 281 846 l 153 847 q 180 926 165 890 q 215 986 194 961 q 262 1025 235 1011 q 325 1039 289 1039 q 387 1031 357 1039 q 443 1012 417 1022 q 492 993 469 1001 q 533 985 514 985 q 581 1002 565 985 q 613 1053 597 1019 l 725 1018 "},"ó":{"ha":922,"x_min":58,"x_max":864,"o":"m 864 371 q 833 220 864 290 q 749 97 803 150 q 621 14 694 44 q 460 -17 547 -17 q 300 13 374 -17 q 173 95 226 43 q 89 217 119 147 q 58 368 58 288 l 58 371 q 89 522 58 451 q 174 644 119 592 q 301 728 228 697 q 463 758 375 758 q 622 728 549 758 q 749 647 696 699 q 833 524 803 594 q 864 374 864 454 l 864 371 m 656 368 l 656 371 q 642 449 656 413 q 601 515 628 486 q 539 560 575 543 q 460 576 503 576 q 378 560 414 576 q 318 517 343 544 q 280 452 293 489 q 267 374 267 415 l 267 371 q 281 292 267 329 q 321 227 294 256 q 383 182 347 199 q 463 165 418 165 q 544 181 508 165 q 604 225 579 197 q 642 290 629 253 q 656 368 656 326 m 542 826 l 381 826 l 538 1072 l 719 993 l 542 826 "},"ò":{"ha":922,"x_min":58,"x_max":864,"o":"m 864 371 q 833 220 864 290 q 749 97 803 150 q 621 14 694 44 q 460 -17 547 -17 q 300 13 374 -17 q 173 95 226 43 q 89 217 119 147 q 58 368 58 288 l 58 371 q 89 522 58 451 q 174 644 119 592 q 301 728 228 697 q 463 758 375 758 q 622 728 549 758 q 749 647 696 699 q 833 524 803 594 q 864 374 864 454 l 864 371 m 656 368 l 656 371 q 642 449 656 413 q 601 515 628 486 q 539 560 575 543 q 460 576 503 576 q 378 560 414 576 q 318 517 343 544 q 280 452 293 489 q 267 374 267 415 l 267 371 q 281 292 267 329 q 321 227 294 256 q 383 182 347 199 q 463 165 418 165 q 544 181 508 165 q 604 225 579 197 q 642 290 629 253 q 656 368 656 326 m 542 826 l 381 826 l 203 993 l 385 1072 l 542 826 "},"ô":{"ha":922,"x_min":58,"x_max":864,"o":"m 864 371 q 833 220 864 290 q 749 97 803 150 q 621 14 694 44 q 460 -17 547 -17 q 300 13 374 -17 q 173 95 226 43 q 89 217 119 147 q 58 368 58 288 l 58 371 q 89 522 58 451 q 174 644 119 592 q 301 728 228 697 q 463 758 375 758 q 622 728 549 758 q 749 647 696 699 q 833 524 803 594 q 864 374 864 454 l 864 371 m 656 368 l 656 371 q 642 449 656 413 q 601 515 628 486 q 539 560 575 543 q 460 576 503 576 q 378 560 414 576 q 318 517 343 544 q 280 452 293 489 q 267 374 267 415 l 267 371 q 281 292 267 329 q 321 227 294 256 q 383 182 347 199 q 463 165 418 165 q 544 181 508 165 q 604 225 579 197 q 642 290 629 253 q 656 368 656 326 m 460 918 l 350 826 l 190 826 l 361 1044 l 561 1044 l 732 826 l 569 826 l 460 918 "},"ö":{"ha":922,"x_min":58,"x_max":864,"o":"m 864 371 q 833 220 864 290 q 749 97 803 150 q 621 14 694 44 q 460 -17 547 -17 q 300 13 374 -17 q 173 95 226 43 q 89 217 119 147 q 58 368 58 288 l 58 371 q 89 522 58 451 q 174 644 119 592 q 301 728 228 697 q 463 758 375 758 q 622 728 549 758 q 749 647 696 699 q 833 524 803 594 q 864 374 864 454 l 864 371 m 656 368 l 656 371 q 642 449 656 413 q 601 515 628 486 q 539 560 575 543 q 460 576 503 576 q 378 560 414 576 q 318 517 343 544 q 280 452 293 489 q 267 374 267 415 l 267 371 q 281 292 267 329 q 321 227 294 256 q 383 182 347 199 q 463 165 418 165 q 544 181 508 165 q 604 225 579 197 q 642 290 629 253 q 656 368 656 326 m 711 826 l 508 826 l 508 1014 l 711 1014 l 711 826 m 414 826 l 211 826 l 211 1014 l 414 1014 l 414 826 "},"õ":{"ha":922,"x_min":58,"x_max":864,"o":"m 864 371 q 833 220 864 290 q 749 97 803 150 q 621 14 694 44 q 460 -17 547 -17 q 300 13 374 -17 q 173 95 226 43 q 89 217 119 147 q 58 368 58 288 l 58 371 q 89 522 58 451 q 174 644 119 592 q 301 728 228 697 q 463 758 375 758 q 622 728 549 758 q 749 647 696 699 q 833 524 803 594 q 864 374 864 454 l 864 371 m 656 368 l 656 371 q 642 449 656 413 q 601 515 628 486 q 539 560 575 543 q 460 576 503 576 q 378 560 414 576 q 318 517 343 544 q 280 452 293 489 q 267 374 267 415 l 267 371 q 281 292 267 329 q 321 227 294 256 q 383 182 347 199 q 463 165 418 165 q 544 181 508 165 q 604 225 579 197 q 642 290 629 253 q 656 368 656 326 m 747 1018 q 685 878 724 931 q 575 826 647 826 q 513 835 543 826 q 457 853 483 843 q 408 872 431 864 q 367 881 385 881 q 319 863 335 881 q 288 813 303 846 l 175 847 q 202 926 188 890 q 237 986 217 961 q 284 1025 257 1011 q 347 1039 311 1039 q 409 1031 379 1039 q 465 1012 439 1022 q 514 993 492 1001 q 556 985 536 985 q 603 1002 588 985 q 635 1053 619 1019 l 747 1018 "},"ú":{"ha":865,"x_min":89,"x_max":771,"o":"m 771 0 l 560 0 l 560 106 q 520 60 542 82 q 472 22 499 39 q 414 -4 446 6 q 342 -14 382 -14 q 155 60 221 -14 q 89 263 89 133 l 89 744 l 300 744 l 300 329 q 333 216 300 254 q 428 178 367 178 q 524 216 489 178 q 560 329 560 254 l 560 744 l 771 744 l 771 0 m 490 826 l 329 826 l 486 1072 l 668 993 l 490 826 "},"ù":{"ha":865,"x_min":89,"x_max":771,"o":"m 771 0 l 560 0 l 560 106 q 520 60 542 82 q 472 22 499 39 q 414 -4 446 6 q 342 -14 382 -14 q 155 60 221 -14 q 89 263 89 133 l 89 744 l 300 744 l 300 329 q 333 216 300 254 q 428 178 367 178 q 524 216 489 178 q 560 329 560 254 l 560 744 l 771 744 l 771 0 m 535 826 l 374 826 l 196 993 l 378 1072 l 535 826 "},"û":{"ha":865,"x_min":89,"x_max":771,"o":"m 771 0 l 560 0 l 560 106 q 520 60 542 82 q 472 22 499 39 q 414 -4 446 6 q 342 -14 382 -14 q 155 60 221 -14 q 89 263 89 133 l 89 744 l 300 744 l 300 329 q 333 216 300 254 q 428 178 367 178 q 524 216 489 178 q 560 329 560 254 l 560 744 l 771 744 l 771 0 m 431 918 l 321 826 l 161 826 l 332 1044 l 532 1044 l 703 826 l 540 826 l 431 918 "},"ü":{"ha":865,"x_min":89,"x_max":771,"o":"m 771 0 l 560 0 l 560 106 q 520 60 542 82 q 472 22 499 39 q 414 -4 446 6 q 342 -14 382 -14 q 155 60 221 -14 q 89 263 89 133 l 89 744 l 300 744 l 300 329 q 333 216 300 254 q 428 178 367 178 q 524 216 489 178 q 560 329 560 254 l 560 744 l 771 744 l 771 0 m 682 826 l 479 826 l 479 1014 l 682 1014 l 682 826 m 385 826 l 182 826 l 182 1014 l 385 1014 l 385 826 "},"†":{"ha":569,"x_min":74,"x_max":496,"o":"m 329 706 l 343 331 l 226 331 l 240 706 l 74 692 l 74 807 l 239 793 l 221 972 l 349 972 l 331 793 l 496 807 l 496 692 l 329 706 "},"°":{"ha":667,"x_min":93,"x_max":574,"o":"m 574 746 q 554 656 574 699 q 501 581 535 614 q 424 530 468 549 q 333 511 381 511 q 242 530 286 511 q 165 581 199 549 q 113 656 132 614 q 93 746 93 699 q 113 835 93 793 q 165 910 132 878 q 242 962 199 943 q 333 981 286 981 q 424 962 381 981 q 501 910 468 943 q 554 835 535 878 q 574 746 574 793 m 461 746 q 451 796 461 772 q 425 838 442 819 q 385 866 408 856 q 333 876 361 876 q 282 866 306 876 q 242 838 258 856 q 215 796 225 819 q 206 746 206 772 q 215 696 206 719 q 242 654 225 672 q 282 626 258 636 q 333 615 306 615 q 385 626 361 615 q 425 654 408 636 q 451 696 442 672 q 461 746 461 719 "},"¢":{"ha":807,"x_min":65,"x_max":753,"o":"m 483 289 q 564 315 528 294 q 633 367 600 335 l 753 246 q 628 147 699 185 q 456 106 557 108 l 433 -8 l 289 -8 l 315 128 q 214 184 260 149 q 135 267 168 219 q 83 372 101 314 q 65 492 65 429 q 94 643 65 572 q 175 767 124 714 q 298 850 226 819 q 454 881 369 881 l 463 881 l 482 981 l 626 981 l 603 858 q 685 817 649 843 q 753 756 721 790 l 628 621 q 595 650 611 638 q 560 672 579 663 l 483 289 m 433 699 q 367 678 397 696 q 315 633 336 661 q 281 570 293 606 q 269 494 269 535 q 292 389 269 436 q 358 314 315 342 l 433 699 "},"£":{"ha":894,"x_min":83,"x_max":831,"o":"m 189 547 l 189 660 q 274 900 189 814 q 518 986 358 986 q 624 974 576 986 q 708 940 671 961 q 776 889 746 918 q 831 826 806 860 l 668 696 q 599 765 632 742 q 521 788 565 788 q 437 752 468 788 q 406 654 406 717 l 406 547 l 722 547 l 722 371 l 406 371 l 406 185 l 828 185 l 828 0 l 83 0 l 83 140 l 189 175 l 189 371 l 83 371 l 83 547 l 189 547 "},"§":{"ha":878,"x_min":76,"x_max":801,"o":"m 801 494 q 766 388 801 425 q 678 331 731 350 q 722 273 708 307 q 736 203 736 239 q 662 44 736 103 q 451 -14 588 -14 q 265 20 344 -14 q 128 118 186 54 l 242 232 q 339 164 290 188 q 446 140 388 140 q 515 154 493 140 q 538 192 538 168 q 532 213 538 204 q 510 231 526 222 q 465 249 494 240 q 385 269 435 258 q 244 308 303 288 q 149 352 186 328 q 94 407 111 376 q 76 478 76 438 q 112 585 76 547 q 200 642 147 622 q 156 699 169 665 q 142 769 142 733 q 216 928 142 869 q 426 986 290 986 q 613 952 533 986 q 750 854 692 918 l 636 740 q 539 808 588 785 q 432 832 490 832 q 363 818 385 832 q 340 781 340 804 q 346 759 340 768 q 367 741 351 750 q 413 723 383 732 q 493 703 443 714 q 633 665 575 685 q 729 620 692 644 q 784 565 767 596 q 801 494 801 535 m 617 464 q 583 510 617 492 q 476 546 549 528 q 391 565 422 560 q 338 571 360 571 q 281 553 301 571 q 261 508 261 536 q 295 463 261 481 q 401 426 329 444 q 487 407 456 413 q 540 401 518 401 q 597 419 576 401 q 617 464 617 436 "},"•":{"ha":694,"x_min":140,"x_max":554,"o":"m 554 489 q 538 408 554 446 q 493 342 521 371 q 428 298 465 314 q 347 282 390 282 q 267 298 304 282 q 201 342 229 314 q 156 408 172 371 q 140 489 140 446 q 156 569 140 532 q 201 635 172 607 q 267 679 229 663 q 347 696 304 696 q 428 679 390 696 q 493 635 465 663 q 538 569 521 607 q 554 489 554 532 "},"¶":{"ha":819,"x_min":49,"x_max":703,"o":"m 432 972 l 703 972 l 703 0 l 489 0 l 489 319 l 456 319 q 294 340 368 319 q 165 401 219 360 q 79 502 110 442 q 49 644 49 563 q 76 782 49 721 q 155 885 104 843 q 276 950 206 928 q 432 972 346 972 "},"ß":{"ha":861,"x_min":94,"x_max":801,"o":"m 746 753 q 736 673 746 707 q 709 612 726 639 q 669 564 692 585 q 619 525 646 543 q 688 488 656 510 q 746 437 721 467 q 786 367 771 407 q 801 278 801 328 q 774 154 801 208 q 697 64 747 100 q 574 10 646 28 q 415 -3 503 -7 l 415 156 q 547 192 501 160 q 593 285 593 224 q 542 376 593 343 q 415 421 492 410 l 415 560 q 502 633 467 592 q 538 733 538 675 q 508 816 538 786 q 426 846 478 846 q 338 808 372 846 q 304 707 304 771 l 304 0 l 94 0 l 94 699 q 119 835 94 775 q 188 938 143 896 q 295 1001 232 979 q 436 1024 358 1024 q 569 1003 511 1024 q 666 945 626 982 q 726 859 706 908 q 746 753 746 810 "},"®":{"ha":1153,"x_min":74,"x_max":1079,"o":"m 1079 488 q 1040 293 1079 385 q 933 133 1001 201 q 773 24 865 64 q 575 -17 681 -17 q 378 23 469 -17 q 219 131 286 63 q 113 290 151 199 q 74 485 74 382 q 113 679 74 588 q 219 840 151 771 q 380 949 288 908 q 578 989 472 989 q 775 949 683 989 q 934 842 867 910 q 1040 682 1001 774 q 1079 488 1079 590 m 1021 488 q 987 662 1021 581 q 894 803 953 743 q 753 899 835 864 q 578 933 672 933 q 401 898 482 933 q 260 801 319 863 q 166 659 200 740 q 132 485 132 578 q 165 310 132 392 q 258 169 199 229 q 399 74 318 108 q 575 39 481 39 q 752 74 671 39 q 893 171 833 110 q 987 313 953 232 q 1021 488 1021 394 m 817 592 q 785 485 817 525 q 701 425 753 444 l 832 233 l 694 233 l 581 406 l 488 406 l 488 233 l 369 233 l 369 768 l 607 768 q 760 722 703 768 q 817 592 817 675 m 697 585 q 672 644 697 625 q 603 664 647 664 l 488 664 l 488 507 l 606 507 q 674 528 650 507 q 697 585 697 550 "},"©":{"ha":1153,"x_min":74,"x_max":1079,"o":"m 1079 488 q 1040 293 1079 385 q 933 133 1001 201 q 773 24 865 64 q 575 -17 681 -17 q 378 23 469 -17 q 219 131 286 63 q 113 290 151 199 q 74 485 74 382 q 113 679 74 588 q 219 840 151 771 q 380 949 288 908 q 578 989 472 989 q 775 949 683 989 q 934 842 867 910 q 1040 682 1001 774 q 1079 488 1079 590 m 1021 488 q 987 662 1021 581 q 894 803 953 743 q 753 899 835 864 q 578 933 672 933 q 401 898 482 933 q 260 801 319 863 q 166 659 200 740 q 132 485 132 578 q 165 310 132 392 q 258 169 199 229 q 399 74 318 108 q 575 39 481 39 q 752 74 671 39 q 893 171 833 110 q 987 313 953 232 q 1021 488 1021 394 m 801 313 q 710 242 760 268 q 582 217 660 217 q 473 238 524 217 q 386 297 422 260 q 329 383 350 333 q 308 492 308 433 q 328 599 308 549 q 385 688 349 650 q 474 747 422 725 q 586 769 525 769 q 711 747 663 769 q 797 688 760 724 l 721 599 q 658 642 690 626 q 586 658 625 658 q 525 645 553 658 q 476 610 497 632 q 444 558 456 588 q 433 493 433 528 q 444 429 433 460 q 476 376 456 399 q 524 341 496 354 q 586 328 553 328 q 661 345 631 328 q 724 390 692 363 l 801 313 "},"™":{"ha":958,"x_min":36,"x_max":907,"o":"m 815 833 l 697 646 l 689 646 l 571 833 l 571 544 l 479 544 l 479 972 l 582 972 l 694 792 l 807 972 l 907 972 l 907 544 l 815 544 l 815 833 m 261 886 l 261 544 l 164 544 l 164 886 l 36 886 l 36 972 l 389 972 l 389 886 l 261 886 "},"´":{"ha":694,"x_min":203,"x_max":542,"o":"m 364 826 l 203 826 l 360 1072 l 542 993 l 364 826 "},"¨":{"ha":694,"x_min":97,"x_max":597,"o":"m 597 826 l 394 826 l 394 1014 l 597 1014 l 597 826 m 300 826 l 97 826 l 97 1014 l 300 1014 l 300 826 "},"Æ":{"ha":1451,"x_min":13,"x_max":1378,"o":"m 1378 0 l 672 0 l 672 218 l 346 218 l 231 0 l 13 0 l 536 972 l 1371 972 l 1371 782 l 885 782 l 885 585 l 1308 585 l 1308 394 l 885 394 l 885 190 l 1378 190 l 1378 0 m 672 407 l 672 788 l 647 788 l 446 407 l 672 407 "},"Ø":{"ha":1181,"x_min":63,"x_max":1118,"o":"m 1107 488 q 1068 292 1107 383 q 960 131 1029 200 q 797 23 892 63 q 589 -17 701 -17 q 447 1 514 -17 q 321 53 379 19 l 267 -7 l 63 -7 l 199 151 q 106 303 139 218 q 74 485 74 388 q 113 681 74 589 q 220 841 151 772 q 384 949 289 910 q 592 989 479 989 q 734 971 667 989 q 860 919 801 953 l 914 979 l 1118 979 l 982 821 q 1074 669 1042 754 q 1107 488 1107 585 m 726 763 q 662 787 696 778 q 589 796 628 796 q 469 771 524 796 q 375 703 414 746 q 315 606 336 661 q 293 488 293 550 q 342 317 293 393 l 726 763 m 888 485 q 839 656 888 579 l 454 210 q 519 185 485 194 q 592 176 553 176 q 712 201 657 176 q 806 269 767 226 q 866 367 844 311 q 888 485 888 422 "},"±":{"ha":853,"x_min":51,"x_max":792,"o":"m 792 288 q 768 166 792 222 q 699 69 744 110 q 588 6 654 29 q 436 -17 521 -17 q 219 28 315 -17 q 51 149 122 72 l 194 288 q 301 206 243 236 q 439 175 360 175 q 545 206 508 175 q 582 290 582 238 q 534 374 582 346 q 399 401 486 401 l 292 401 l 292 579 l 404 579 q 517 611 479 579 q 556 693 556 643 q 519 768 556 739 q 415 797 482 797 q 307 766 353 797 q 217 685 261 735 l 69 810 q 138 884 103 851 q 214 940 172 917 q 306 976 256 964 q 418 989 356 989 q 561 969 497 989 q 671 915 625 950 q 741 833 717 881 q 765 726 765 785 q 730 585 765 638 q 638 500 694 532 q 748 422 704 471 q 792 288 792 374 "},"¥":{"ha":953,"x_min":19,"x_max":933,"o":"m 579 364 l 579 278 l 835 278 l 835 128 l 579 128 l 579 0 l 374 0 l 374 128 l 118 128 l 118 278 l 374 278 l 374 364 l 118 364 l 118 514 l 317 514 l 19 972 l 265 972 l 479 613 l 694 972 l 933 972 l 633 514 l 835 514 l 835 364 l 579 364 "},"µ":{"ha":1181,"x_min":74,"x_max":1196,"o":"m 1107 488 q 1065 287 1107 381 q 949 124 1024 193 l 1196 -126 l 1196 -140 l 882 -140 l 736 3 q 589 -17 665 -17 q 382 23 476 -17 q 219 130 288 63 q 112 289 150 197 q 74 485 74 381 q 113 681 74 589 q 220 841 151 772 q 384 949 289 910 q 592 989 479 989 q 799 949 704 989 q 962 842 893 910 q 1069 683 1031 775 q 1107 488 1107 592 m 883 485 q 862 603 883 547 q 801 701 840 660 q 707 767 761 743 q 589 792 653 792 q 470 768 524 792 q 378 703 417 744 q 319 606 340 661 q 297 488 297 550 q 319 369 297 425 q 380 271 340 313 q 473 205 419 229 q 592 181 526 181 q 710 204 656 181 q 802 269 764 228 q 862 367 840 311 q 883 485 883 422 "},"π":{"ha":1153,"x_min":74,"x_max":1079,"o":"m 1079 488 q 1040 293 1079 385 q 933 133 1001 201 q 773 24 865 64 q 575 -17 681 -17 q 378 23 469 -17 q 219 131 286 63 q 113 290 151 199 q 74 485 74 382 q 113 679 74 588 q 219 840 151 771 q 380 949 288 908 q 578 989 472 989 q 775 949 683 989 q 934 842 867 910 q 1040 682 1001 774 q 1079 488 1079 590 m 1021 488 q 987 662 1021 581 q 894 803 953 743 q 753 899 835 864 q 578 933 672 933 q 401 898 482 933 q 260 801 319 863 q 166 659 200 740 q 132 485 132 578 q 165 310 132 392 q 258 169 199 229 q 399 74 318 108 q 575 39 481 39 q 752 74 671 39 q 893 171 833 110 q 987 313 953 232 q 1021 488 1021 394 m 817 576 q 799 495 817 531 q 753 436 782 460 q 684 401 724 413 q 600 389 644 389 l 511 389 l 511 228 l 392 228 l 392 763 l 611 763 q 762 711 707 763 q 817 576 817 660 m 696 575 q 670 636 696 615 q 600 657 644 657 l 511 657 l 511 493 l 603 493 q 672 516 647 493 q 696 575 696 539 "},"ª":{"ha":542,"x_min":68,"x_max":454,"o":"m 449 563 l 336 563 l 336 607 q 285 569 315 583 q 213 554 256 554 q 113 586 154 554 q 72 681 72 618 q 118 781 72 749 q 238 813 164 813 q 292 808 268 813 q 338 796 315 803 l 338 803 q 315 858 338 839 q 249 878 293 878 q 190 872 217 878 q 136 856 164 867 l 107 943 q 178 967 142 958 q 267 976 214 976 q 406 930 363 976 q 449 800 449 883 l 449 563 m 454 385 l 68 385 l 68 476 l 454 476 l 454 385 m 339 707 l 339 728 q 305 739 324 735 q 264 743 286 743 q 206 728 228 743 q 185 686 185 714 q 202 648 185 661 q 247 635 219 635 q 313 655 288 635 q 339 707 339 675 "},"º":{"ha":542,"x_min":57,"x_max":485,"o":"m 485 767 q 468 683 485 722 q 423 615 451 644 q 355 569 394 586 q 269 553 315 553 q 185 569 224 553 q 117 615 146 586 q 73 682 89 643 q 57 765 57 721 q 74 849 57 810 q 119 917 90 888 q 187 963 147 946 q 272 979 226 979 q 357 963 318 979 q 424 917 396 946 q 469 850 453 889 q 485 767 485 811 m 471 385 l 71 385 l 71 476 l 471 476 l 471 385 m 371 765 q 343 845 371 811 q 269 879 315 879 q 197 846 224 879 q 171 767 171 813 q 199 687 171 721 q 272 653 226 653 q 344 686 318 653 q 371 765 371 719 "},"æ":{"ha":1321,"x_min":50,"x_max":1258,"o":"m 633 96 q 494 17 569 49 q 331 -14 419 -14 q 217 1 268 -14 q 128 47 165 17 q 71 119 92 76 q 50 218 50 163 q 72 322 50 278 q 134 396 94 367 q 228 440 174 425 q 350 454 283 454 q 449 446 407 454 q 532 424 492 438 l 532 436 q 492 538 532 503 q 372 572 451 572 q 265 562 311 572 q 167 532 218 551 l 114 693 q 242 736 175 719 q 403 753 308 753 q 556 728 494 753 q 656 658 618 704 q 763 732 701 706 q 901 758 825 758 q 1060 725 993 758 q 1171 635 1126 692 q 1237 506 1215 579 q 1258 353 1258 432 q 1258 326 1258 338 q 1256 299 1257 314 l 738 299 q 801 190 754 226 q 919 153 849 153 q 1014 171 972 153 q 1100 229 1056 189 l 1221 122 q 1093 20 1168 57 q 917 -17 1018 -17 q 758 13 831 -17 q 633 96 686 43 m 735 431 l 1053 431 q 1003 545 1043 501 q 896 589 963 589 q 788 546 829 589 q 735 431 747 503 m 533 301 q 472 320 506 313 q 400 328 438 328 q 293 303 332 328 q 254 226 254 278 q 286 158 254 182 q 369 135 318 135 q 465 152 417 135 q 560 206 513 169 q 543 251 550 228 q 533 301 536 275 "},"ø":{"ha":922,"x_min":38,"x_max":885,"o":"m 864 372 q 833 221 864 292 q 749 97 803 150 q 621 14 694 44 q 460 -17 547 -17 q 354 -4 404 -17 q 260 32 304 8 l 222 -7 l 38 -7 l 149 121 q 82 234 106 171 q 58 369 58 297 q 89 521 58 450 q 174 644 119 592 q 301 728 228 697 q 463 758 375 758 q 568 746 518 758 q 661 710 618 733 l 700 751 l 885 751 l 772 622 q 840 508 817 571 q 864 372 864 444 m 539 565 q 460 582 503 582 q 378 565 414 582 q 315 520 342 549 q 275 453 289 492 q 261 372 261 415 q 283 274 261 321 l 539 565 m 661 369 q 639 468 661 421 l 385 175 q 463 160 422 160 q 544 176 508 160 q 607 222 581 193 q 647 288 633 250 q 661 369 661 326 "},"¿":{"ha":756,"x_min":51,"x_max":728,"o":"m 303 972 l 528 972 l 528 750 l 303 750 l 303 972 m 507 410 q 319 372 375 404 q 264 282 264 339 q 297 208 264 233 q 392 182 331 182 q 501 206 450 182 q 600 278 551 229 l 728 138 q 584 29 667 71 q 388 -12 501 -12 q 251 6 313 -12 q 144 62 189 25 q 76 153 100 99 q 51 276 51 207 q 73 391 51 343 q 131 472 94 439 q 218 526 168 506 q 325 557 268 546 l 340 642 l 482 642 l 514 417 l 507 410 "},"¡":{"ha":450,"x_min":101,"x_max":349,"o":"m 113 972 l 338 972 l 338 750 l 113 750 l 113 972 m 349 0 l 101 0 l 101 28 l 167 642 l 283 642 l 349 28 l 349 0 "},"√":{"ha":1481,"x_min":43,"x_max":1376,"o":"m 869 736 l 1040 736 l 1040 564 l 872 564 l 872 0 l 661 0 l 661 564 l 574 564 l 574 738 l 661 738 l 661 785 q 720 966 661 908 q 892 1024 779 1024 q 977 1018 942 1024 q 1042 1003 1013 1013 l 1042 828 q 996 841 1018 836 q 946 846 974 846 q 869 765 869 846 l 869 736 m 339 736 l 510 736 l 510 564 l 342 564 l 342 0 l 131 0 l 131 564 l 43 564 l 43 738 l 131 738 l 131 785 q 190 966 131 908 q 361 1024 249 1024 q 447 1018 411 1024 q 511 1003 482 1013 l 511 828 q 465 841 488 836 q 415 846 443 846 q 339 765 339 846 l 339 736 m 1376 0 l 1165 0 l 1165 1014 l 1376 1014 l 1376 0 "},"ƒ":{"ha":744,"x_min":57,"x_max":694,"o":"m 694 788 q 646 798 669 794 q 600 801 622 801 q 529 778 554 801 q 496 707 504 756 l 486 651 l 646 651 l 646 478 l 456 478 l 410 218 q 378 114 399 157 q 324 44 357 71 q 244 5 290 17 q 139 -7 199 -7 q 94 -6 113 -7 q 57 0 76 -4 l 57 171 q 108 167 83 167 q 175 186 153 167 q 206 251 197 206 l 244 478 l 151 478 l 151 651 l 275 651 l 294 754 q 373 919 314 860 q 557 979 432 979 q 694 963 642 979 l 694 788 "},"≈":{"ha":1481,"x_min":43,"x_max":1382,"o":"m 1382 826 l 1160 826 l 1160 1014 l 1382 1014 l 1382 826 m 869 736 l 1040 736 l 1040 564 l 872 564 l 872 0 l 661 0 l 661 564 l 574 564 l 574 738 l 661 738 l 661 785 q 720 966 661 908 q 892 1024 779 1024 q 977 1018 942 1024 q 1042 1003 1013 1013 l 1042 828 q 996 841 1018 836 q 946 846 974 846 q 869 765 869 846 l 869 736 m 339 736 l 510 736 l 510 564 l 342 564 l 342 0 l 131 0 l 131 564 l 43 564 l 43 738 l 131 738 l 131 785 q 190 966 131 908 q 361 1024 249 1024 q 447 1018 411 1024 q 511 1003 482 1013 l 511 828 q 465 841 488 836 q 415 846 443 846 q 339 765 339 846 l 339 736 m 1376 0 l 1165 0 l 1165 744 l 1376 744 l 1376 0 "},"«":{"ha":896,"x_min":57,"x_max":829,"o":"m 668 689 l 829 611 l 649 374 l 829 136 l 668 56 l 435 367 l 435 378 l 668 689 m 290 689 l 451 611 l 271 374 l 451 136 l 290 56 l 57 367 l 57 378 l 290 689 "},"»":{"ha":896,"x_min":67,"x_max":839,"o":"m 606 56 l 444 133 l 625 371 l 444 608 l 606 689 l 839 378 l 839 367 l 606 56 m 228 56 l 67 133 l 247 371 l 67 608 l 228 689 l 461 378 l 461 367 l 228 56 "},"…":{"ha":1167,"x_min":86,"x_max":1081,"o":"m 1081 0 l 861 0 l 861 217 l 1081 217 l 1081 0 m 693 0 l 474 0 l 474 217 l 693 217 l 693 0 m 306 0 l 86 0 l 86 217 l 306 217 l 306 0 "}," ":{"ha":417,"x_min":0,"x_max":0,"o":""},"À":{"ha":1097,"x_min":33,"x_max":1064,"o":"m 1064 0 l 840 0 l 751 218 l 340 218 l 251 0 l 33 0 l 450 979 l 647 979 l 1064 0 m 675 407 l 546 722 l 417 407 l 675 407 m 638 1049 l 476 1049 l 299 1215 l 481 1294 l 638 1049 "},"Ã":{"ha":1097,"x_min":33,"x_max":1064,"o":"m 1064 0 l 840 0 l 751 218 l 340 218 l 251 0 l 33 0 l 450 979 l 647 979 l 1064 0 m 675 407 l 546 722 l 417 407 l 675 407 m 835 1240 q 773 1101 811 1153 q 663 1049 735 1049 q 601 1057 631 1049 q 544 1076 571 1065 q 495 1094 518 1086 q 454 1103 472 1103 q 406 1085 422 1103 q 375 1035 390 1068 l 263 1069 q 290 1148 275 1113 q 324 1208 304 1183 q 372 1247 344 1233 q 435 1261 399 1261 q 497 1253 467 1261 q 553 1234 526 1244 q 601 1215 579 1224 q 643 1207 624 1207 q 691 1224 675 1207 q 722 1275 707 1242 l 835 1240 "},"Õ":{"ha":1181,"x_min":74,"x_max":1107,"o":"m 1107 486 q 1068 291 1107 382 q 960 131 1029 200 q 797 23 892 63 q 589 -17 701 -17 q 382 23 476 -17 q 219 130 288 63 q 112 288 150 197 q 74 483 74 379 l 74 486 q 113 681 74 590 q 220 841 151 772 q 384 949 289 910 q 592 989 479 989 q 799 949 704 989 q 962 842 893 910 q 1069 684 1031 775 q 1107 489 1107 593 l 1107 486 m 883 483 l 883 486 q 862 604 883 549 q 801 701 840 660 q 707 767 761 743 q 589 792 653 792 q 470 768 524 792 q 378 703 417 744 q 319 606 340 661 q 297 489 297 551 l 297 486 q 319 368 297 424 q 380 271 340 313 q 473 205 419 229 q 592 181 526 181 q 710 204 656 181 q 802 269 764 228 q 862 366 840 311 q 883 483 883 421 m 876 1240 q 815 1101 853 1153 q 704 1049 776 1049 q 642 1057 672 1049 q 586 1076 613 1065 q 537 1094 560 1086 q 496 1103 514 1103 q 448 1085 464 1103 q 417 1035 432 1068 l 304 1069 q 331 1148 317 1113 q 366 1208 346 1183 q 413 1247 386 1233 q 476 1261 440 1261 q 538 1253 508 1261 q 594 1234 568 1244 q 643 1215 621 1224 q 685 1207 665 1207 q 733 1224 717 1207 q 764 1275 749 1242 l 876 1240 "},"Œ":{"ha":1493,"x_min":74,"x_max":1419,"o":"m 1419 0 l 590 0 q 381 37 475 0 q 217 139 286 74 q 111 293 149 204 q 74 485 74 382 q 111 676 74 588 q 217 831 149 765 q 381 935 286 897 q 590 972 475 972 l 1413 972 l 1413 782 l 926 782 l 926 585 l 1350 585 l 1350 394 l 926 394 l 926 190 l 1419 190 l 1419 0 m 714 193 l 714 779 l 590 779 q 471 758 525 779 q 378 699 417 738 q 318 606 339 660 q 297 488 297 553 q 318 368 297 422 q 378 275 339 314 q 471 215 417 236 q 590 193 525 193 l 714 193 "},"œ":{"ha":1435,"x_min":58,"x_max":1372,"o":"m 739 115 q 613 19 688 54 q 447 -17 538 -17 q 297 13 368 -17 q 173 95 226 43 q 89 218 119 147 q 58 369 58 289 q 90 521 58 450 q 174 644 121 592 q 300 728 228 697 q 456 758 372 758 q 619 724 546 758 q 743 628 692 689 q 858 723 789 688 q 1015 758 928 758 q 1174 725 1107 758 q 1285 635 1240 692 q 1351 506 1329 579 q 1372 353 1372 432 q 1372 326 1372 338 q 1369 299 1371 314 l 851 299 q 915 190 868 226 q 1033 153 963 153 q 1128 171 1086 153 q 1214 229 1169 189 l 1335 122 q 1207 20 1282 57 q 1031 -17 1132 -17 q 862 18 936 -17 q 739 115 788 53 m 849 431 l 1167 431 q 1117 545 1157 501 q 1010 589 1076 589 q 902 546 943 589 q 849 431 861 503 m 642 369 q 628 449 642 411 q 589 515 614 488 q 529 560 564 543 q 453 576 494 576 q 374 560 408 576 q 316 516 340 544 q 279 451 292 488 q 267 372 267 414 q 281 292 267 331 q 319 226 294 254 q 379 182 344 199 q 456 165 414 165 q 533 181 499 165 q 592 226 568 197 q 629 291 617 254 q 642 369 642 328 "},"–":{"ha":733,"x_min":69,"x_max":664,"o":"m 664 332 l 69 332 l 69 529 l 664 529 l 664 332 "},"—":{"ha":1247,"x_min":69,"x_max":1178,"o":"m 1178 332 l 69 332 l 69 529 l 1178 529 l 1178 332 "},"“":{"ha":750,"x_min":79,"x_max":707,"o":"m 707 892 q 571 754 560 876 l 657 754 l 657 532 l 432 532 l 432 719 q 499 917 432 857 q 689 979 565 976 l 707 892 m 354 892 q 218 754 207 876 l 304 754 l 304 532 l 79 532 l 79 719 q 146 917 79 857 q 336 979 213 976 l 354 892 "},"”":{"ha":750,"x_min":43,"x_max":671,"o":"m 396 613 q 532 750 543 628 l 446 750 l 446 972 l 671 972 l 671 785 q 604 587 671 647 q 414 525 538 526 l 396 613 m 43 613 q 179 750 190 628 l 93 750 l 93 972 l 318 972 l 318 785 q 251 587 318 647 q 61 525 185 526 l 43 613 "},"‘":{"ha":397,"x_min":79,"x_max":354,"o":"m 354 892 q 218 754 207 876 l 304 754 l 304 532 l 79 532 l 79 719 q 146 917 79 857 q 336 979 213 976 l 354 892 "},"’":{"ha":397,"x_min":43,"x_max":318,"o":"m 43 613 q 179 750 190 628 l 93 750 l 93 972 l 318 972 l 318 785 q 251 587 318 647 q 61 525 185 526 l 43 613 "},"ÿ":{"ha":833,"x_min":28,"x_max":803,"o":"m 803 744 l 517 -18 q 472 -115 496 -75 q 420 -179 449 -154 q 356 -215 392 -204 q 272 -226 319 -226 q 169 -212 214 -226 q 85 -175 125 -199 l 156 -22 q 201 -43 176 -35 q 246 -51 225 -51 q 290 -41 274 -51 q 319 -3 306 -31 l 28 744 l 251 744 l 421 238 l 583 744 l 803 744 m 667 826 l 464 826 l 464 1014 l 667 1014 l 667 826 m 369 826 l 167 826 l 167 1014 l 369 1014 l 369 826 "},"Ÿ":{"ha":994,"x_min":17,"x_max":978,"o":"m 978 972 l 604 388 l 604 0 l 390 0 l 390 383 l 17 972 l 267 972 l 499 582 l 735 972 l 978 972 m 747 1049 l 544 1049 l 544 1236 l 747 1236 l 747 1049 m 450 1049 l 247 1049 l 247 1236 l 450 1236 l 450 1049 "},"¤":{"ha":1000,"x_min":68,"x_max":947,"o":"m 172 536 l 68 536 l 68 676 l 199 676 q 257 802 219 744 q 345 901 294 860 q 460 966 396 943 q 603 989 525 989 q 718 976 667 989 q 810 939 769 963 q 884 883 851 915 q 944 811 917 850 l 783 689 q 701 770 743 742 q 599 799 660 799 q 492 767 536 799 q 422 676 449 735 l 678 676 l 678 536 l 389 536 q 388 513 388 525 q 388 488 388 500 q 388 464 388 476 q 389 442 388 453 l 678 442 l 678 301 l 419 301 q 493 206 446 239 q 607 174 540 174 q 708 202 667 174 q 794 288 749 231 l 947 175 q 806 36 886 89 q 607 -17 726 -17 q 461 6 528 -17 q 342 71 394 29 q 253 172 290 113 q 196 301 217 231 l 68 301 l 68 442 l 172 442 q 171 463 171 453 q 171 485 171 474 q 171 510 171 497 q 172 536 171 524 "},"‹":{"ha":518,"x_min":57,"x_max":451,"o":"m 290 689 l 451 611 l 271 374 l 451 136 l 290 56 l 57 367 l 57 378 l 290 689 "},"›":{"ha":518,"x_min":67,"x_max":461,"o":"m 228 56 l 67 133 l 247 371 l 67 608 l 228 689 l 461 378 l 461 367 l 228 56 "},"ﬁ":{"ha":950,"x_min":43,"x_max":851,"o":"m 851 826 l 629 826 l 629 1014 l 851 1014 l 851 826 m 339 736 l 510 736 l 510 564 l 342 564 l 342 0 l 131 0 l 131 564 l 43 564 l 43 738 l 131 738 l 131 785 q 190 966 131 908 q 361 1024 249 1024 q 447 1018 411 1024 q 511 1003 482 1013 l 511 828 q 465 841 488 836 q 415 846 443 846 q 339 765 339 846 l 339 736 m 846 0 l 635 0 l 635 744 l 846 744 l 846 0 "},"ﬂ":{"ha":950,"x_min":43,"x_max":846,"o":"m 339 736 l 510 736 l 510 564 l 342 564 l 342 0 l 131 0 l 131 564 l 43 564 l 43 738 l 131 738 l 131 785 q 190 966 131 908 q 361 1024 249 1024 q 447 1018 411 1024 q 511 1003 482 1013 l 511 828 q 465 841 488 836 q 415 846 443 846 q 339 765 339 846 l 339 736 m 846 0 l 635 0 l 635 1014 l 846 1014 l 846 0 "},"‡":{"ha":597,"x_min":88,"x_max":510,"o":"m 510 165 l 344 179 l 363 0 l 235 0 l 253 179 l 88 165 l 88 281 l 253 267 l 240 486 l 253 706 l 88 692 l 88 807 l 253 793 l 235 972 l 363 972 l 344 793 l 510 807 l 510 692 l 344 706 l 357 486 l 344 267 l 510 281 l 510 165 "},"·":{"ha":397,"x_min":86,"x_max":311,"o":"m 311 319 l 86 319 l 86 542 l 311 542 l 311 319 "},"‚":{"ha":397,"x_min":36,"x_max":311,"o":"m 36 -137 q 172 0 183 -122 l 86 0 l 86 222 l 311 222 l 311 35 q 244 -163 311 -103 q 54 -225 178 -224 l 36 -137 "},"„":{"ha":750,"x_min":36,"x_max":664,"o":"m 389 -137 q 525 0 536 -122 l 439 0 l 439 222 l 664 222 l 664 35 q 597 -163 664 -103 q 407 -225 531 -224 l 389 -137 m 36 -137 q 172 0 183 -122 l 86 0 l 86 222 l 311 222 l 311 35 q 244 -163 311 -103 q 54 -225 178 -224 l 36 -137 "},"‰":{"ha":1722,"x_min":63,"x_max":1660,"o":"m 535 736 q 517 638 535 683 q 469 559 500 593 q 394 506 438 525 q 297 486 350 486 q 201 506 244 486 q 127 558 158 525 q 79 637 96 592 q 63 733 63 682 q 80 831 63 785 q 128 910 97 876 q 203 964 160 944 q 300 983 247 983 q 396 964 353 983 q 470 911 439 944 q 518 833 501 878 q 535 736 535 788 m 869 972 l 1035 972 l 325 0 l 160 0 l 869 972 m 1660 239 q 1642 141 1660 186 q 1594 62 1625 96 q 1519 8 1563 28 q 1422 -11 1475 -11 q 1326 8 1369 -11 q 1252 61 1283 28 q 1204 140 1221 94 q 1188 236 1188 185 q 1205 333 1188 288 q 1253 413 1222 379 q 1328 467 1285 447 q 1425 486 1372 486 q 1521 467 1478 486 q 1595 414 1564 447 q 1643 335 1626 381 q 1660 239 1660 290 m 1132 239 q 1115 141 1132 186 q 1066 62 1097 96 q 991 8 1035 28 q 894 -11 947 -11 q 799 8 842 -11 q 724 61 756 28 q 676 140 693 94 q 660 236 660 185 q 677 333 660 288 q 726 413 694 379 q 801 467 757 447 q 897 486 844 486 q 993 467 950 486 q 1067 414 1036 447 q 1115 335 1099 381 q 1132 239 1132 290 m 389 733 q 364 820 389 783 q 297 857 339 857 q 231 821 253 857 q 208 736 208 785 q 233 649 208 686 q 300 613 258 613 q 367 649 344 613 q 389 733 389 685 m 1514 236 q 1489 323 1514 286 q 1422 360 1464 360 q 1356 324 1378 360 q 1333 239 1333 288 q 1358 152 1333 189 q 1425 115 1383 115 q 1492 151 1469 115 q 1514 236 1514 188 m 986 236 q 961 323 986 286 q 894 360 936 360 q 828 324 850 360 q 806 239 806 288 q 831 152 806 189 q 897 115 856 115 q 964 151 942 115 q 986 236 986 188 "},"Â":{"ha":1097,"x_min":33,"x_max":1064,"o":"m 1064 0 l 840 0 l 751 218 l 340 218 l 251 0 l 33 0 l 450 979 l 647 979 l 1064 0 m 675 407 l 546 722 l 417 407 l 675 407 m 547 1140 l 438 1049 l 278 1049 l 449 1267 l 649 1267 l 819 1049 l 657 1049 l 547 1140 "},"Ê":{"ha":931,"x_min":117,"x_max":857,"o":"m 857 0 l 117 0 l 117 972 l 850 972 l 850 782 l 329 782 l 329 585 l 788 585 l 788 394 l 329 394 l 329 190 l 857 190 l 857 0 m 479 1140 l 369 1049 l 210 1049 l 381 1267 l 581 1267 l 751 1049 l 589 1049 l 479 1140 "},"Á":{"ha":1097,"x_min":33,"x_max":1064,"o":"m 1064 0 l 840 0 l 751 218 l 340 218 l 251 0 l 33 0 l 450 979 l 647 979 l 1064 0 m 675 407 l 546 722 l 417 407 l 675 407 m 621 1049 l 460 1049 l 617 1294 l 799 1215 l 621 1049 "},"Ë":{"ha":931,"x_min":117,"x_max":857,"o":"m 857 0 l 117 0 l 117 972 l 850 972 l 850 782 l 329 782 l 329 585 l 788 585 l 788 394 l 329 394 l 329 190 l 857 190 l 857 0 m 731 1049 l 528 1049 l 528 1236 l 731 1236 l 731 1049 m 433 1049 l 231 1049 l 231 1236 l 433 1236 l 433 1049 "},"È":{"ha":931,"x_min":117,"x_max":857,"o":"m 857 0 l 117 0 l 117 972 l 850 972 l 850 782 l 329 782 l 329 585 l 788 585 l 788 394 l 329 394 l 329 190 l 857 190 l 857 0 m 601 1049 l 440 1049 l 263 1215 l 444 1294 l 601 1049 "},"Í":{"ha":467,"x_min":126,"x_max":485,"o":"m 340 0 l 126 0 l 126 972 l 340 972 l 340 0 m 307 1049 l 146 1049 l 303 1294 l 485 1215 l 307 1049 "},"Î":{"ha":467,"x_min":126,"x_max":668,"o":"m 340 0 l 126 0 l 126 972 l 340 972 l 340 0 m 396 1140 l 286 1049 l 126 1049 l 297 1267 l 497 1267 l 668 1049 l 506 1049 l 396 1140 "},"Ï":{"ha":467,"x_min":126,"x_max":626,"o":"m 340 0 l 126 0 l 126 972 l 340 972 l 340 0 m 626 1049 l 424 1049 l 424 1236 l 626 1236 l 626 1049 m 329 1049 l 126 1049 l 126 1236 l 329 1236 l 329 1049 "},"Ì":{"ha":467,"x_min":126,"x_max":467,"o":"m 340 0 l 126 0 l 126 972 l 340 972 l 340 0 m 467 1049 l 306 1049 l 128 1215 l 310 1294 l 467 1049 "},"Ó":{"ha":1181,"x_min":74,"x_max":1107,"o":"m 1107 486 q 1068 291 1107 382 q 960 131 1029 200 q 797 23 892 63 q 589 -17 701 -17 q 382 23 476 -17 q 219 130 288 63 q 112 288 150 197 q 74 483 74 379 l 74 486 q 113 681 74 590 q 220 841 151 772 q 384 949 289 910 q 592 989 479 989 q 799 949 704 989 q 962 842 893 910 q 1069 684 1031 775 q 1107 489 1107 593 l 1107 486 m 883 483 l 883 486 q 862 604 883 549 q 801 701 840 660 q 707 767 761 743 q 589 792 653 792 q 470 768 524 792 q 378 703 417 744 q 319 606 340 661 q 297 489 297 551 l 297 486 q 319 368 297 424 q 380 271 340 313 q 473 205 419 229 q 592 181 526 181 q 710 204 656 181 q 802 269 764 228 q 862 366 840 311 q 883 483 883 421 m 676 1049 l 515 1049 l 672 1294 l 854 1215 l 676 1049 "},"Ô":{"ha":1181,"x_min":74,"x_max":1107,"o":"m 1107 486 q 1068 291 1107 382 q 960 131 1029 200 q 797 23 892 63 q 589 -17 701 -17 q 382 23 476 -17 q 219 130 288 63 q 112 288 150 197 q 74 483 74 379 l 74 486 q 113 681 74 590 q 220 841 151 772 q 384 949 289 910 q 592 989 479 989 q 799 949 704 989 q 962 842 893 910 q 1069 684 1031 775 q 1107 489 1107 593 l 1107 486 m 883 483 l 883 486 q 862 604 883 549 q 801 701 840 660 q 707 767 761 743 q 589 792 653 792 q 470 768 524 792 q 378 703 417 744 q 319 606 340 661 q 297 489 297 551 l 297 486 q 319 368 297 424 q 380 271 340 313 q 473 205 419 229 q 592 181 526 181 q 710 204 656 181 q 802 269 764 228 q 862 366 840 311 q 883 483 883 421 m 589 1140 l 479 1049 l 319 1049 l 490 1267 l 690 1267 l 861 1049 l 699 1049 l 589 1140 "},"":{"ha":1343,"x_min":140,"x_max":1206,"o":"m 1206 0 l 140 0 l 140 1042 l 1206 1042 l 1206 0 m 1193 -144 l 1185 -144 l 1181 -117 l 1167 -146 l 1164 -146 l 1150 -117 l 1146 -144 l 1138 -144 l 1146 -97 l 1147 -97 l 1165 -133 l 1183 -97 l 1185 -97 l 1193 -144 m 1119 -121 q 1113 -139 1119 -132 q 1096 -146 1107 -146 q 1078 -139 1085 -146 q 1072 -122 1072 -132 q 1079 -104 1072 -111 q 1097 -97 1086 -97 q 1113 -104 1107 -97 q 1119 -121 1119 -111 m 1053 -133 l 1051 -142 q 1038 -146 1047 -146 q 1013 -122 1013 -146 q 1019 -104 1013 -111 q 1038 -97 1026 -97 q 1053 -101 1046 -97 l 1050 -108 q 1038 -104 1046 -104 q 1026 -109 1031 -104 q 1021 -121 1021 -114 q 1039 -139 1021 -139 q 1053 -133 1044 -139 m 975 -99 l 957 -125 l 957 -144 l 949 -144 l 949 -125 l 929 -99 l 938 -97 l 953 -118 l 965 -99 l 975 -99 m 911 -144 l 903 -144 l 903 -124 l 881 -124 l 881 -144 l 872 -144 l 872 -99 l 881 -99 l 881 -117 l 903 -117 l 903 -99 l 911 -99 l 911 -144 m 850 -114 q 826 -131 850 -131 l 826 -144 l 818 -144 l 818 -99 q 844 -101 838 -96 q 850 -114 850 -107 m 800 -144 l 792 -144 l 786 -133 l 767 -133 l 763 -144 l 754 -144 l 775 -97 l 778 -97 l 800 -144 m 742 -144 l 732 -144 l 721 -129 l 714 -129 l 714 -144 l 706 -144 l 706 -99 q 731 -101 725 -96 q 738 -112 738 -106 q 728 -126 738 -122 l 742 -144 m 682 -140 q 664 -146 674 -146 q 646 -140 653 -146 q 639 -122 639 -133 q 647 -104 639 -111 q 665 -97 654 -97 q 682 -103 674 -97 l 679 -110 q 664 -104 674 -104 q 647 -122 647 -104 q 665 -139 647 -139 q 674 -136 668 -139 l 674 -126 l 661 -126 l 661 -119 l 682 -119 l 682 -140 m 621 -121 q 615 -139 621 -132 q 597 -146 608 -146 q 580 -139 586 -146 q 574 -122 574 -132 q 581 -104 574 -111 q 599 -97 588 -97 q 615 -104 608 -97 q 621 -121 621 -111 m 556 -114 q 532 -131 556 -131 l 532 -144 l 524 -144 l 524 -99 q 549 -101 543 -96 q 556 -114 556 -107 m 506 -99 l 488 -125 l 488 -144 l 479 -144 l 479 -125 l 460 -99 l 468 -97 l 483 -118 l 496 -99 l 506 -99 m 449 -99 l 449 -106 l 432 -106 l 432 -144 l 424 -144 l 424 -106 l 407 -106 l 407 -99 l 449 -99 m 371 -99 l 354 -146 l 353 -146 l 338 -114 l 324 -146 l 322 -146 l 306 -99 l 314 -97 l 324 -129 l 338 -97 l 339 -97 l 353 -129 l 363 -99 l 371 -99 m 293 -99 l 276 -146 l 275 -146 l 260 -114 l 246 -146 l 244 -146 l 228 -99 l 236 -97 l 246 -129 l 260 -97 l 261 -97 l 275 -129 l 285 -99 l 293 -99 m 215 -99 l 199 -146 l 197 -146 l 182 -114 l 168 -146 l 167 -146 l 150 -99 l 158 -97 l 168 -129 l 182 -97 l 183 -97 l 197 -129 l 207 -99 l 215 -99 m 994 -140 q 989 -146 994 -146 q 983 -140 983 -146 q 989 -135 983 -135 q 994 -140 994 -135 m 394 -140 q 389 -146 394 -146 q 383 -140 383 -146 q 389 -135 383 -135 q 394 -140 394 -135 m 776 953 q 776 958 776 953 q 775 969 776 965 q 751 968 772 968 q 726 969 731 968 q 726 959 726 965 q 725 953 725 953 l 728 953 q 731 959 728 953 q 742 965 735 965 q 746 961 746 965 l 746 929 q 742 922 746 922 q 739 922 739 922 l 739 919 l 763 919 l 763 922 q 758 922 763 922 q 756 929 756 922 l 756 961 q 760 965 756 965 q 770 959 767 965 q 774 953 774 953 l 776 953 m 700 919 l 700 922 q 696 922 700 922 q 692 929 692 922 l 692 958 q 696 965 692 965 q 700 965 700 965 l 700 968 l 675 968 l 675 967 l 675 965 q 678 965 675 965 q 682 958 682 965 l 682 946 l 658 946 l 658 958 q 661 965 658 965 q 665 965 665 965 l 665 967 l 665 968 l 642 968 l 642 965 q 644 965 642 965 q 649 958 649 965 l 649 929 q 645 923 649 924 q 642 922 642 922 l 642 919 l 665 919 l 665 922 q 662 923 665 922 q 658 929 658 924 l 658 943 l 682 943 l 682 929 q 678 922 682 922 q 675 922 675 922 l 675 919 l 700 919 m 610 922 q 606 922 610 922 q 603 929 603 922 l 603 958 q 606 965 603 965 q 610 965 610 965 l 610 968 l 569 968 l 567 954 l 569 953 q 572 958 569 953 q 582 964 575 964 l 588 964 q 593 960 593 964 l 593 946 l 588 946 q 580 949 581 946 q 579 953 579 953 l 576 953 l 576 935 l 579 935 q 580 939 579 935 q 588 943 581 943 l 593 943 l 593 928 q 588 924 593 924 l 582 924 q 572 930 575 924 q 568 936 568 936 l 565 935 l 568 919 l 610 919 l 610 922 m 1149 858 l 1149 867 l 197 867 l 197 858 l 1149 858 m 967 750 q 951 787 967 771 q 915 803 935 803 q 894 796 906 803 q 883 772 883 789 q 899 735 883 750 q 935 719 915 719 q 956 726 944 719 q 967 750 967 733 m 818 746 q 799 769 818 763 q 806 782 806 774 q 799 796 806 789 q 776 803 792 803 q 758 788 758 803 q 765 779 758 779 q 771 783 771 779 q 769 788 771 788 q 767 792 767 789 q 776 799 767 799 q 790 782 790 799 q 788 774 790 776 q 765 765 765 776 q 776 757 765 757 q 792 764 785 757 q 800 743 800 757 q 783 724 800 724 q 767 736 767 724 q 771 740 767 740 q 774 739 772 740 q 778 738 775 738 q 783 744 783 738 q 774 751 783 751 q 761 738 761 751 q 783 719 761 719 q 810 727 801 719 q 818 746 818 735 m 410 746 q 390 769 410 763 q 397 782 397 774 q 390 796 397 789 q 368 803 383 803 q 350 788 350 803 q 357 779 350 779 q 363 783 363 779 q 360 788 363 788 q 358 792 358 789 q 368 799 358 799 q 382 782 382 799 q 379 774 382 776 q 357 765 357 776 q 368 757 357 757 q 383 764 376 757 q 392 743 392 757 q 375 724 392 724 q 358 736 358 724 q 363 740 358 740 q 365 739 364 740 q 369 738 367 738 q 375 744 375 738 q 365 751 375 751 q 353 738 353 751 q 375 719 353 719 q 401 727 393 719 q 410 746 410 735 m 1139 725 q 1133 726 1139 725 q 1125 736 1128 726 l 1115 785 q 1119 795 1113 794 q 1125 796 1125 796 l 1124 800 l 1085 800 l 1086 796 q 1091 795 1086 796 q 1099 785 1096 794 l 1103 764 l 1069 764 l 1065 785 q 1069 795 1063 794 q 1075 796 1075 796 l 1074 800 l 1033 800 l 1035 796 q 1040 795 1035 796 q 1049 785 1046 794 l 1058 736 q 1055 726 1061 726 q 1049 725 1049 725 l 1050 721 l 1090 721 l 1089 725 q 1083 726 1089 725 q 1075 736 1078 726 l 1071 758 l 1104 758 l 1108 736 q 1105 726 1111 726 q 1099 725 1099 725 l 1100 721 l 1140 721 l 1139 725 m 692 721 l 690 725 q 685 726 690 725 q 676 736 679 726 l 667 785 q 670 795 664 794 q 676 796 676 796 l 675 800 l 613 800 q 613 786 614 796 q 613 776 613 776 l 618 776 q 619 785 618 776 q 636 794 621 794 l 642 794 q 650 786 649 794 l 654 764 l 649 764 q 635 770 639 764 q 632 776 632 776 l 628 776 l 635 744 l 639 744 q 640 752 639 744 q 650 760 640 760 l 656 760 l 660 736 q 656 726 663 726 q 650 725 650 725 l 651 721 l 692 721 m 281 725 q 275 726 281 725 q 267 736 269 726 l 257 785 q 260 795 254 794 q 267 796 267 796 l 265 800 l 228 800 q 200 779 200 800 q 208 765 200 771 q 226 758 215 760 l 214 736 q 201 726 208 726 q 194 725 194 725 l 196 721 l 222 721 l 239 753 q 246 757 240 757 l 250 736 q 247 726 253 726 q 240 725 240 725 l 242 721 l 282 721 l 281 725 m 556 724 q 551 731 556 726 q 538 736 547 735 q 531 751 532 740 q 528 773 531 761 q 520 794 526 785 q 497 803 514 803 q 485 798 490 803 q 479 789 479 793 q 486 782 479 782 q 492 790 492 782 q 499 799 492 799 q 508 792 506 799 q 511 775 510 785 q 516 755 513 765 q 528 736 519 744 q 508 727 513 736 q 496 718 503 718 q 489 724 489 718 q 490 727 489 726 q 492 731 492 728 q 485 738 492 738 q 478 728 478 738 q 485 716 478 721 q 499 711 492 711 q 519 720 517 711 q 533 729 522 729 q 550 719 538 719 q 556 724 556 719 m 1149 660 l 1149 668 l 197 668 l 197 660 l 1149 660 m 1149 525 l 1149 611 l 944 611 l 944 525 l 994 525 l 994 564 l 1010 564 l 1010 474 l 990 474 l 990 428 l 1103 428 l 1103 474 l 1083 474 l 1083 564 l 1099 564 l 1099 525 l 1149 525 m 900 564 l 900 611 l 788 611 l 788 564 l 803 564 l 782 532 l 761 564 l 775 564 l 775 611 l 689 611 l 689 564 l 706 564 l 757 500 l 757 474 l 738 474 l 738 428 l 850 428 l 850 474 l 829 474 l 829 501 l 881 564 l 900 564 m 636 428 l 636 474 l 617 474 l 617 564 l 636 564 l 636 611 l 503 611 q 455 595 472 611 q 438 556 438 579 q 455 516 438 532 q 503 500 472 500 l 544 500 l 544 474 l 524 474 l 524 428 l 636 428 m 393 428 l 393 474 l 374 474 l 374 564 l 393 564 l 393 611 l 197 611 l 197 525 l 254 525 l 254 564 l 300 564 l 300 536 l 267 536 l 267 503 l 300 503 l 300 474 l 254 474 l 254 513 l 197 513 l 197 428 l 393 428 m 1149 376 l 1149 385 l 197 385 l 197 376 l 1149 376 m 1011 267 q 995 303 1011 288 q 960 319 979 319 q 939 313 950 319 q 928 289 928 306 q 944 251 928 267 q 979 236 960 236 q 1000 243 989 236 q 1011 267 1011 250 m 282 301 q 273 314 278 308 q 257 319 268 319 q 238 288 236 319 q 226 310 233 301 q 208 319 219 319 q 197 315 201 319 q 192 303 192 311 l 196 301 q 207 310 196 310 q 228 295 221 310 q 240 264 236 281 q 238 244 244 246 q 232 243 232 243 l 233 238 l 272 238 l 271 243 q 265 244 271 243 q 257 256 260 244 q 250 290 250 279 q 263 308 250 308 q 273 305 269 308 q 279 299 276 301 l 282 301 m 1143 238 l 1142 242 q 1136 242 1142 242 q 1128 253 1131 243 l 1118 301 q 1122 312 1115 311 q 1128 313 1128 313 l 1126 317 l 1064 317 q 1065 303 1065 313 q 1064 293 1064 293 l 1069 293 q 1071 302 1069 293 q 1088 311 1072 311 l 1093 311 q 1101 303 1100 311 l 1106 281 l 1100 281 q 1087 287 1090 281 q 1083 293 1083 293 l 1079 293 l 1086 261 l 1090 261 q 1091 269 1090 261 q 1101 276 1092 276 l 1107 276 l 1111 253 q 1108 242 1114 243 q 1101 242 1101 242 l 1103 238 l 1143 238 m 863 313 l 861 317 l 821 317 l 822 313 q 828 312 822 313 q 836 300 833 311 l 843 271 q 844 250 846 257 q 828 243 843 243 q 810 252 817 243 q 800 274 803 261 l 794 300 q 798 312 792 311 q 804 313 804 313 l 804 317 l 771 317 l 772 313 q 778 312 772 313 q 788 300 785 311 l 793 274 q 804 249 796 263 q 832 236 813 236 q 858 247 856 236 q 858 269 861 258 l 851 300 q 856 312 849 311 q 863 313 863 313 m 725 242 q 720 243 725 242 q 713 256 715 244 l 703 300 q 707 312 700 311 q 714 313 714 313 l 713 317 l 693 317 l 653 258 l 646 300 q 649 311 643 310 q 656 313 656 313 l 654 317 l 625 317 l 626 313 q 631 311 626 313 q 639 300 636 310 l 650 238 l 654 236 l 696 297 l 704 256 q 701 243 707 244 q 696 242 696 242 l 697 238 l 726 238 l 725 242 m 575 238 l 574 243 q 568 244 574 243 q 560 256 563 244 l 549 299 q 560 313 544 311 l 558 317 l 517 317 q 493 309 504 317 q 482 286 482 301 q 497 251 482 264 q 531 238 513 238 l 575 238 m 425 242 q 419 242 425 242 q 411 253 414 243 l 401 301 q 405 312 399 311 q 411 313 411 313 l 410 317 l 372 317 q 344 296 344 317 q 352 282 344 288 q 371 275 360 276 l 358 253 q 346 242 353 243 q 339 242 339 242 l 340 238 l 367 238 l 383 269 q 390 274 385 274 l 394 253 q 391 242 397 243 q 385 242 385 242 l 386 238 l 426 238 l 425 242 m 1149 176 l 1149 185 l 197 185 l 197 176 l 1149 176 m 964 64 l 964 67 q 960 68 964 67 q 956 74 956 69 l 956 101 q 960 107 956 104 q 964 110 964 110 l 964 113 l 950 113 l 917 76 l 917 101 q 921 108 917 107 q 925 110 925 110 l 925 113 l 904 113 l 904 110 q 908 108 904 110 q 913 101 913 107 l 913 63 l 917 63 l 951 101 l 951 74 q 948 68 951 69 q 944 67 944 67 l 944 64 l 964 64 m 879 67 q 875 67 879 67 q 872 74 872 67 l 872 103 q 875 110 872 110 q 879 110 879 110 l 879 113 l 839 113 l 836 99 l 839 97 q 842 103 839 97 q 851 108 844 108 l 857 108 q 863 104 863 108 l 863 90 l 857 90 q 849 94 850 90 q 849 97 849 97 l 846 97 l 846 79 l 849 79 q 849 83 849 79 q 857 88 850 88 l 863 88 l 863 72 q 857 68 863 68 l 851 68 q 841 74 844 68 q 838 81 838 81 l 835 79 l 838 64 l 879 64 l 879 67 m 810 113 l 789 113 l 789 110 q 792 108 789 110 q 792 103 794 107 l 779 76 l 772 90 l 778 101 q 783 108 781 106 q 786 110 786 110 l 786 113 l 750 113 l 751 110 q 754 109 751 110 q 761 101 757 108 l 765 94 l 756 76 l 744 101 q 744 108 742 107 q 747 110 747 110 l 747 113 l 729 113 l 729 110 q 732 108 729 110 q 738 101 735 107 l 756 64 l 757 64 q 758 63 757 64 q 758 64 758 63 l 769 86 l 782 64 l 783 64 l 800 101 q 806 109 803 108 q 810 110 810 110 l 810 113 m 667 110 l 667 113 l 646 113 l 646 110 q 648 109 646 110 q 647 103 650 108 l 639 90 l 631 103 q 631 109 628 108 q 635 110 635 110 l 635 113 l 614 113 l 614 110 q 618 109 614 110 q 625 103 622 108 l 636 86 l 636 75 q 633 67 636 68 q 629 67 629 67 l 629 64 l 653 64 l 653 67 q 649 67 653 67 q 646 75 646 68 l 646 86 l 657 103 q 663 109 660 108 q 667 110 667 110 m 590 89 q 583 107 590 100 q 563 114 576 114 q 542 107 549 114 q 535 89 535 100 q 542 70 535 78 q 563 63 549 63 q 583 70 576 63 q 590 89 590 78 m 506 64 l 506 67 q 502 67 506 67 q 499 74 499 68 l 499 101 q 502 109 499 108 q 506 110 506 110 l 506 113 l 481 113 q 463 100 463 113 q 475 88 463 93 l 465 74 q 458 67 461 68 q 454 67 454 67 l 454 64 l 469 64 l 479 81 q 489 86 483 86 l 489 74 q 485 67 489 68 q 482 67 482 67 l 482 64 l 506 64 m 429 64 l 429 67 q 425 68 429 67 q 421 75 421 69 l 421 103 q 425 109 421 108 q 429 110 429 110 l 429 113 l 404 113 l 404 110 q 408 109 404 110 q 413 103 413 108 l 413 90 q 407 93 410 90 l 396 104 q 395 108 393 107 q 397 110 397 110 l 397 113 l 378 113 l 378 110 q 382 108 378 110 q 389 104 386 107 l 403 92 l 385 74 q 378 69 382 71 q 375 67 375 67 l 375 64 l 399 64 l 399 67 q 395 67 399 67 q 396 74 392 68 l 407 85 q 413 88 410 88 l 413 75 q 408 67 413 68 q 404 67 404 67 l 404 64 l 429 64 m 842 -115 q 826 -106 842 -104 l 826 -124 q 842 -115 842 -124 m 729 -114 q 714 -106 729 -103 l 714 -122 q 729 -114 729 -124 m 547 -115 q 532 -106 547 -104 l 532 -124 q 547 -115 547 -124 m 783 -128 l 776 -111 l 769 -128 l 783 -128 m 1111 -122 q 1096 -104 1111 -104 q 1081 -121 1081 -104 q 1096 -139 1081 -139 q 1111 -122 1111 -139 m 613 -122 q 597 -104 613 -104 q 582 -121 582 -104 q 597 -139 582 -139 q 613 -122 613 -139 m 244 761 l 238 761 q 222 768 226 761 q 217 782 217 775 q 228 794 217 794 q 240 788 239 794 l 244 761 m 786 768 q 776 763 782 763 q 771 765 771 763 q 776 769 771 769 q 786 768 783 769 m 378 768 q 368 763 374 763 q 363 765 363 763 q 368 769 363 769 q 378 768 375 769 m 950 743 q 935 725 950 725 q 911 741 922 725 q 900 778 900 757 q 915 797 900 797 q 939 781 928 797 q 950 743 950 765 m 544 533 l 529 533 q 511 549 511 533 q 529 564 511 564 l 544 564 l 544 533 m 389 278 l 382 278 q 366 285 371 278 q 361 299 361 292 q 372 311 361 311 q 385 304 383 311 l 389 278 m 994 260 q 979 242 994 242 q 956 258 967 242 q 944 294 944 274 q 960 314 944 314 q 983 298 972 314 q 994 260 994 282 m 546 253 q 540 243 546 243 l 533 243 q 508 257 518 243 q 497 288 497 271 q 517 311 497 311 l 525 311 q 530 309 529 310 q 533 301 531 308 l 546 253 m 768 110 q 768 97 774 110 q 768 110 761 110 m 489 89 l 485 89 q 474 100 474 89 q 483 108 474 108 q 489 103 489 108 l 489 89 m 579 89 q 576 72 579 79 q 563 65 572 65 q 550 72 554 65 q 546 89 546 79 q 563 111 546 111 q 579 89 579 111 "},"Ò":{"ha":1181,"x_min":74,"x_max":1107,"o":"m 1107 486 q 1068 291 1107 382 q 960 131 1029 200 q 797 23 892 63 q 589 -17 701 -17 q 382 23 476 -17 q 219 130 288 63 q 112 288 150 197 q 74 483 74 379 l 74 486 q 113 681 74 590 q 220 841 151 772 q 384 949 289 910 q 592 989 479 989 q 799 949 704 989 q 962 842 893 910 q 1069 684 1031 775 q 1107 489 1107 593 l 1107 486 m 883 483 l 883 486 q 862 604 883 549 q 801 701 840 660 q 707 767 761 743 q 589 792 653 792 q 470 768 524 792 q 378 703 417 744 q 319 606 340 661 q 297 489 297 551 l 297 486 q 319 368 297 424 q 380 271 340 313 q 473 205 419 229 q 592 181 526 181 q 710 204 656 181 q 802 269 764 228 q 862 366 840 311 q 883 483 883 421 m 665 1049 l 504 1049 l 326 1215 l 508 1294 l 665 1049 "},"Ú":{"ha":1050,"x_min":101,"x_max":949,"o":"m 949 424 q 919 231 949 313 q 833 94 889 149 q 699 12 778 39 q 522 -15 619 -15 q 214 93 326 -15 q 101 417 101 201 l 101 972 l 315 972 l 315 422 q 371 242 315 303 q 525 182 426 182 q 679 240 624 182 q 735 415 735 299 l 735 972 l 949 972 l 949 424 m 590 1042 l 429 1042 l 586 1288 l 768 1208 l 590 1042 "},"Û":{"ha":1050,"x_min":101,"x_max":949,"o":"m 949 424 q 919 231 949 313 q 833 94 889 149 q 699 12 778 39 q 522 -15 619 -15 q 214 93 326 -15 q 101 417 101 201 l 101 972 l 315 972 l 315 422 q 371 242 315 303 q 525 182 426 182 q 679 240 624 182 q 735 415 735 299 l 735 972 l 949 972 l 949 424 m 524 1140 l 414 1049 l 254 1049 l 425 1267 l 625 1267 l 796 1049 l 633 1049 l 524 1140 "},"Ù":{"ha":1050,"x_min":101,"x_max":949,"o":"m 949 424 q 919 231 949 313 q 833 94 889 149 q 699 12 778 39 q 522 -15 619 -15 q 214 93 326 -15 q 101 417 101 201 l 101 972 l 315 972 l 315 422 q 371 242 315 303 q 525 182 426 182 q 679 240 624 182 q 735 415 735 299 l 735 972 l 949 972 l 949 424 m 621 1042 l 460 1042 l 282 1208 l 464 1288 l 621 1042 "},"ı":{"ha":419,"x_min":104,"x_max":315,"o":"m 315 0 l 104 0 l 104 744 l 315 744 l 315 0 "},"ˆ":{"ha":694,"x_min":76,"x_max":618,"o":"m 346 918 l 236 826 l 76 826 l 247 1044 l 447 1044 l 618 826 l 456 826 l 346 918 "},"˜":{"ha":694,"x_min":61,"x_max":633,"o":"m 633 1018 q 572 878 610 931 q 461 826 533 826 q 399 835 429 826 q 343 853 369 843 q 294 872 317 864 q 253 881 271 881 q 205 863 221 881 q 174 813 189 846 l 61 847 q 88 926 74 890 q 123 986 103 961 q 170 1025 143 1011 q 233 1039 197 1039 q 295 1031 265 1039 q 351 1012 325 1022 q 400 993 378 1001 q 442 985 422 985 q 490 1002 474 985 q 521 1053 506 1019 l 633 1018 "},"¯":{"ha":694,"x_min":97,"x_max":597,"o":"m 597 833 l 97 833 l 97 979 l 597 979 l 597 833 "},"˘":{"ha":694,"x_min":86,"x_max":608,"o":"m 608 1044 q 528 881 599 939 q 347 824 458 824 q 166 881 236 824 q 86 1044 96 939 l 228 1044 q 267 984 240 1007 q 347 961 294 961 q 427 984 400 961 q 467 1044 454 1007 l 608 1044 "},"˙":{"ha":694,"x_min":243,"x_max":451,"o":"m 451 826 l 243 826 l 243 1014 l 451 1014 l 451 826 "},"˚":{"ha":694,"x_min":179,"x_max":515,"o":"m 515 986 q 501 923 515 953 q 465 872 488 893 q 411 837 442 850 q 347 824 381 824 q 283 837 314 824 q 230 872 253 850 q 193 923 207 893 q 179 986 179 953 q 193 1049 179 1019 q 230 1101 207 1079 q 283 1135 253 1122 q 347 1149 314 1149 q 411 1135 381 1149 q 465 1101 442 1122 q 501 1049 488 1079 q 515 986 515 1019 m 433 986 q 408 1047 433 1022 q 347 1072 383 1072 q 286 1047 311 1072 q 261 986 261 1022 q 286 925 261 950 q 347 900 311 900 q 408 925 383 900 q 433 986 433 950 "},"¸":{"ha":694,"x_min":164,"x_max":443,"o":"m 288 14 l 443 14 l 340 -240 l 164 -167 l 288 14 "},"˝":{"ha":694,"x_min":50,"x_max":656,"o":"m 475 826 l 321 826 l 478 1072 l 656 993 l 475 826 m 204 826 l 50 826 l 204 1072 l 382 993 l 204 826 "},"˛":{"ha":694,"x_min":238,"x_max":515,"o":"m 404 14 q 396 -40 396 -15 q 422 -107 396 -83 q 515 -135 449 -131 l 515 -228 q 310 -199 382 -239 q 238 -76 238 -160 q 244 -29 238 -53 q 260 14 250 -6 l 404 14 "},"ˇ":{"ha":694,"x_min":76,"x_max":618,"o":"m 349 953 l 458 1044 l 618 1044 l 447 826 l 247 826 l 76 1044 l 239 1044 l 349 953 "},"ł":{"ha":503,"x_min":42,"x_max":461,"o":"m 356 450 l 356 0 l 147 0 l 147 389 l 42 357 l 42 556 l 147 588 l 147 1014 l 356 1014 l 356 649 l 461 681 l 461 482 l 356 450 "},"Š":{"ha":889,"x_min":50,"x_max":819,"o":"m 819 288 q 793 159 819 215 q 719 65 767 103 q 607 6 672 26 q 463 -14 542 -14 q 244 24 351 -14 q 50 142 138 63 l 176 293 q 313 207 243 239 q 467 175 383 175 q 570 199 533 175 q 607 267 607 224 l 607 269 q 599 306 607 290 q 570 336 592 322 q 510 364 549 350 q 411 393 472 378 q 278 433 338 411 q 176 488 218 456 q 112 569 135 521 q 89 690 89 618 l 89 693 q 114 813 89 760 q 184 906 139 867 q 292 965 229 944 q 429 986 354 986 q 626 954 536 986 q 790 863 715 922 l 679 701 q 551 772 614 746 q 426 797 489 797 q 333 773 364 797 q 301 713 301 749 l 301 710 q 310 669 301 686 q 343 638 319 651 q 408 611 367 624 q 511 582 449 599 q 642 538 585 563 q 740 480 700 514 q 799 400 779 446 q 819 290 819 354 l 819 288 m 442 1175 l 551 1267 l 711 1267 l 540 1049 l 340 1049 l 169 1267 l 332 1267 l 442 1175 "},"š":{"ha":697,"x_min":36,"x_max":640,"o":"m 640 226 q 619 119 640 164 q 558 44 597 74 q 467 1 519 15 q 356 -14 415 -14 q 194 13 276 -14 q 36 99 111 40 l 126 238 q 248 171 188 193 q 361 149 308 149 q 428 164 407 149 q 450 204 450 179 l 450 207 q 438 236 450 224 q 403 258 425 249 q 354 275 382 267 q 296 293 326 283 q 217 320 257 304 q 146 362 178 336 q 94 425 114 388 q 74 517 74 463 l 74 519 q 95 620 74 576 q 153 694 117 664 q 240 740 190 725 q 346 756 289 756 q 490 733 417 756 q 624 669 563 710 l 543 524 q 435 574 488 556 q 342 593 382 593 q 283 578 303 593 q 264 542 264 564 l 264 539 q 276 512 264 524 q 310 490 289 500 q 358 469 331 479 q 415 450 385 460 q 494 420 454 438 q 567 378 535 403 q 619 317 599 353 q 640 229 640 281 l 640 226 m 356 953 l 465 1044 l 625 1044 l 454 826 l 254 826 l 83 1044 l 246 1044 l 356 953 "},"Ý":{"ha":994,"x_min":17,"x_max":978,"o":"m 978 972 l 604 388 l 604 0 l 390 0 l 390 383 l 17 972 l 267 972 l 499 582 l 735 972 l 978 972 m 576 1042 l 415 1042 l 572 1288 l 754 1208 l 576 1042 "},"ý":{"ha":833,"x_min":28,"x_max":803,"o":"m 803 744 l 517 -18 q 472 -115 496 -75 q 420 -179 449 -154 q 356 -215 392 -204 q 272 -226 319 -226 q 169 -212 214 -226 q 85 -175 125 -199 l 156 -22 q 201 -43 176 -35 q 246 -51 225 -51 q 290 -41 274 -51 q 319 -3 306 -31 l 28 744 l 251 744 l 421 238 l 583 744 l 803 744 m 479 826 l 318 826 l 475 1072 l 657 993 l 479 826 "},"Þ":{"ha":935,"x_min":117,"x_max":886,"o":"m 886 493 q 856 344 886 408 q 772 236 825 279 q 647 172 718 193 q 493 150 575 150 l 331 150 l 331 0 l 117 0 l 117 972 l 331 972 l 331 831 l 514 831 q 670 806 601 831 q 787 738 739 782 q 860 631 835 693 q 886 493 886 568 m 669 489 q 623 600 669 563 q 496 638 576 638 l 331 638 l 331 340 l 500 340 q 625 382 581 340 q 669 489 669 424 "},"þ":{"ha":938,"x_min":94,"x_max":876,"o":"m 876 372 q 848 206 876 278 q 773 85 819 135 q 665 11 726 36 q 538 -14 604 -14 q 398 19 453 -14 q 306 97 343 53 l 306 -222 l 94 -222 l 94 1014 l 306 1014 l 306 638 q 399 724 344 690 q 538 758 454 758 q 664 733 603 758 q 772 659 725 708 q 848 538 819 610 q 876 372 876 465 m 665 372 q 651 458 665 419 q 611 523 636 496 q 553 565 586 550 q 483 579 521 579 q 413 565 446 579 q 356 523 381 550 q 317 458 332 496 q 303 372 303 419 q 317 287 303 325 q 356 222 332 249 q 413 180 381 194 q 483 165 446 165 q 553 180 521 165 q 611 222 586 194 q 651 287 636 249 q 665 372 665 325 "},"Ž":{"ha":983,"x_min":88,"x_max":897,"o":"m 897 0 l 88 0 l 88 163 l 622 785 l 104 785 l 104 972 l 897 972 l 897 810 l 363 188 l 897 188 l 897 0 m 497 1175 l 607 1267 l 767 1267 l 596 1049 l 396 1049 l 225 1267 l 388 1267 l 497 1175 "},"ž":{"ha":782,"x_min":69,"x_max":717,"o":"m 717 0 l 69 0 l 69 149 l 454 574 l 82 574 l 82 744 l 717 744 l 717 596 l 331 171 l 717 171 l 717 0 m 403 953 l 513 1044 l 672 1044 l 501 826 l 301 826 l 131 1044 l 293 1044 l 403 953 "},"Ł":{"ha":901,"x_min":54,"x_max":857,"o":"m 857 0 l 158 0 l 158 364 l 54 333 l 54 532 l 158 563 l 158 972 l 369 972 l 369 626 l 636 706 l 636 507 l 369 428 l 369 194 l 857 194 l 857 0 "},"Ω":{"ha":1061,"x_min":43,"x_max":1042,"o":"m 869 736 l 1040 736 l 1040 564 l 872 564 l 872 0 l 661 0 l 661 564 l 574 564 l 574 738 l 661 738 l 661 785 q 720 966 661 908 q 892 1024 779 1024 q 977 1018 942 1024 q 1042 1003 1013 1013 l 1042 828 q 996 841 1018 836 q 946 846 974 846 q 869 765 869 846 l 869 736 m 339 736 l 510 736 l 510 564 l 342 564 l 342 0 l 131 0 l 131 564 l 43 564 l 43 738 l 131 738 l 131 785 q 190 966 131 908 q 361 1024 249 1024 q 447 1018 411 1024 q 511 1003 482 1013 l 511 828 q 465 841 488 836 q 415 846 443 846 q 339 765 339 846 l 339 736 "},"∕":{"ha":667,"x_min":-99,"x_max":735,"o":"m 549 1053 l 735 1053 l 88 -136 l -99 -136 l 549 1053 "},"Ð":{"ha":1128,"x_min":54,"x_max":1054,"o":"m 158 394 l 54 394 l 54 583 l 158 583 l 158 972 l 538 972 q 747 935 651 972 q 910 833 842 899 q 1017 679 979 768 q 1054 488 1054 590 q 1017 295 1054 385 q 910 140 979 206 q 747 38 842 75 q 538 0 651 0 l 158 0 l 158 394 m 369 583 l 581 583 l 581 394 l 369 394 l 369 193 l 538 193 q 657 214 603 193 q 749 274 711 235 q 809 366 788 313 q 831 485 831 419 q 809 604 831 550 q 749 697 788 658 q 657 758 711 736 q 538 779 603 779 l 369 779 l 369 583 "},"ð":{"ha":900,"x_min":58,"x_max":839,"o":"m 426 792 l 268 726 l 190 831 l 350 894 l 261 1014 l 499 1014 l 531 968 l 669 1025 l 746 921 l 604 864 l 717 704 q 773 616 750 658 q 810 533 796 574 q 832 451 825 493 q 839 365 839 410 q 813 218 839 288 q 735 97 786 149 q 610 14 683 44 q 443 -17 536 -17 q 289 12 360 -17 q 167 90 218 40 q 88 206 117 139 q 58 349 58 272 q 82 481 58 421 q 148 585 106 542 q 249 651 190 628 q 376 675 307 675 q 464 665 425 675 q 547 631 503 654 l 426 792 m 633 344 q 620 415 633 382 q 583 472 607 447 q 525 511 560 497 q 449 525 490 525 q 372 511 407 525 q 314 473 338 497 q 277 416 290 449 q 264 344 264 383 q 277 274 264 307 q 315 215 290 240 q 374 176 340 190 q 450 161 408 161 q 527 175 493 161 q 585 214 561 189 q 621 272 608 239 q 633 344 633 306 "}}}
